<svg width="375" height="97" viewBox="0 0 375 97" fill="none" xmlns="http://www.w3.org/2000/svg">
<g opacity="0.65">
<path d="M89.0955 37.0937C89.8003 38.7484 90.0761 40.5717 90.6277 42.2571C90.4132 41.4757 90.214 40.7249 89.9995 39.8976C89.785 39.0702 89.6471 38.5952 89.4479 37.967C89.2488 37.3388 88.8351 36.3583 88.498 35.5462C88.178 34.8351 87.8147 34.1444 87.4102 33.4778C87.9464 34.7342 88.6052 35.8526 89.0955 37.0937Z" fill="#F7C17A"/>
<path d="M88.9576 57.8546C88.8351 58.5134 88.7278 59.1723 88.6665 59.8617C88.5593 61.0262 86.736 61.0262 86.8586 59.8617C86.8586 59.2795 86.9811 58.7126 87.0577 58.1457C87.0577 58.4062 86.9352 58.6513 86.8586 58.9118H84.9587C85.4978 57.0546 85.8973 55.1596 86.1538 53.2428H86.7666L87.8545 54.3306C87.8545 54.4532 87.8545 54.5604 87.8545 54.6677H87.9311C88.3107 53.4758 88.6228 52.2635 88.8657 51.0365C89.1742 49.5234 89.2209 47.9687 89.0036 46.4399C88.6494 44.8726 88.424 43.279 88.3294 41.6749C88.3381 41.5032 88.3853 41.3357 88.4673 41.1846C88.1092 39.7321 87.6431 38.3083 87.0731 36.9252C86.3064 35.4905 85.7884 33.9364 85.5409 32.3287C85.5233 32.2249 85.5282 32.1185 85.5553 32.0168C85.5823 31.9151 85.6309 31.8204 85.6977 31.739C85.7645 31.6577 85.848 31.5916 85.9426 31.5453C86.0371 31.499 86.1405 31.4736 86.2457 31.4707C85.0966 29.7853 83.9321 28.1305 82.8443 26.3992C81.6937 24.3035 80.1966 22.4178 78.4163 20.8221C77.6655 20.2245 78.4163 19.2899 79.1824 19.2899C78.3091 18.4626 77.3898 17.6658 76.4705 16.8691C72.0272 13.1153 67.4919 9.42276 61.8995 7.92124H60.3674C57.6401 7.92124 54.9282 7.78334 52.2009 7.64545C47.0509 7.33375 41.8835 7.81431 36.8792 9.07036C34.3583 9.79512 31.9349 10.8241 29.6627 12.1347C28.5136 12.7476 27.3645 13.3604 26.2613 14.0499L25.5412 14.4942L24.4687 15.674C25.0815 15.2297 25.7097 14.7854 26.3685 14.3717C26.4085 14.5023 26.4899 14.6163 26.6005 14.6965C26.7111 14.7767 26.8448 14.8186 26.9814 14.816C27.1521 14.816 27.3158 14.7482 27.4364 14.6275C27.5571 14.5068 27.6249 14.3432 27.6249 14.1725C27.626 14.0862 27.6088 14.0006 27.5744 13.9214C27.5401 13.8422 27.4894 13.7711 27.4257 13.7128C28.3604 13.1459 29.3256 12.625 30.3062 12.1807L30.8731 12.7476V13.9427C28.5178 15.1332 26.2898 16.5604 24.2235 18.2021L23.1357 17.1142L22.9365 17.3288L25.4799 19.8721L24.9436 20.3165L22.4462 17.8344L22.247 18.0335L23.2429 19.0141C22.173 19.9106 21.1502 20.8618 20.1786 21.864L19.0754 20.7608L18.8456 20.9293L19.9794 22.0632C18.6575 23.5039 17.4438 25.0402 16.3482 26.6597L15.0611 25.1275C16.0076 23.8022 17.0308 22.5334 18.1255 21.3277C17.8185 21.5452 17.4958 21.7398 17.1602 21.9099C16.7859 22.694 16.3177 23.4298 15.7659 24.1009C14.6781 25.4952 13.4217 26.7209 12.2266 27.9926C11.0315 29.2643 10.051 30.199 9.07037 31.3941C9.14555 31.5273 9.18505 31.6777 9.18505 31.8307C9.18505 31.9837 9.14555 32.1341 9.07037 32.2674C8.01963 34.0252 7.21051 35.9166 6.66486 37.8904C6.19793 39.8581 5.96649 41.8743 5.97539 43.8965C5.89878 47.6197 5.17866 51.6646 6.49633 55.2652C7.18282 56.8524 7.74129 58.492 8.16639 60.1682C8.48815 61.8229 8.64136 63.493 9.0244 65.1171C9.91306 68.8249 12.7016 71.5675 15.2297 74.3101C18.0795 77.3744 21.1745 80.163 24.0856 83.1354C25.296 84.3764 26.3532 85.7094 27.4717 87.0424C28.3968 88.2392 29.6883 89.1002 31.1489 89.4939C34.2133 90.3366 37.4155 90.26 40.4951 90.9341C43.1918 91.5163 45.7505 92.4663 48.4165 93.0332C51.5697 92.8584 54.674 92.1755 57.6095 91.0107C60.5778 89.7131 63.6103 88.5676 66.6952 87.5787C69.5541 86.8105 72.3148 85.7154 74.923 84.3151C77.3468 82.5866 79.5134 80.5232 81.3581 78.1865C84.7645 74.2111 87.0166 69.3783 87.8698 64.2131C88.2988 62.1447 88.7891 60.0762 89.2794 58.0844C89.1627 58.022 89.0545 57.9448 88.9576 57.8546ZM26.9355 14.4023C26.8445 14.4066 26.7553 14.3755 26.6868 14.3155C26.6182 14.2555 26.5756 14.1713 26.5677 14.0806L27.1193 13.7435C27.1727 13.7743 27.2167 13.8191 27.2464 13.8731C27.2761 13.9272 27.2905 13.9883 27.2878 14.0499C27.2878 14.0962 27.2787 14.142 27.261 14.1848C27.2433 14.2275 27.2174 14.2664 27.1846 14.2991C27.1519 14.3318 27.1131 14.3578 27.0703 14.3755C27.0276 14.3932 26.9817 14.4023 26.9355 14.4023ZM84.6522 58.8352H82.7677C83.3483 56.9832 83.7787 55.0874 84.0547 53.1662H85.8626C85.6124 55.1105 85.2076 57.0318 84.6522 58.9118V58.8352ZM63.7994 80.5307V74.8004C64.8194 74.2021 65.8018 73.5421 66.7412 72.8239L70.3418 76.4245C68.7221 77.7052 66.9945 78.8433 65.1784 79.8259C64.734 80.071 64.2744 80.2855 63.7994 80.5307ZM65.1018 80.1936V82.2008L63.7994 82.8289V80.8524L65.1018 80.1936ZM67.3234 72.0118L66.7718 72.4562L65.2397 70.924L65.8066 70.4797L67.3234 72.0118ZM66.067 70.3418L66.6493 69.8668L68.0282 71.399L67.5532 71.7973L66.067 70.3418ZM66.496 72.6247C65.6157 73.2866 64.7001 73.9003 63.7535 74.4633V72.0272C64.1671 71.7514 64.5808 71.4603 65.0098 71.1385L66.496 72.6247ZM65.3316 80.0404C67.1493 79.0524 68.8816 77.9147 70.5103 76.639L71.782 77.9107C69.779 79.511 67.6176 80.9022 65.3316 82.0629V80.0404ZM66.8638 72.6553L67.4307 72.211L71.0925 75.8116L70.541 76.2559L66.8638 72.6553ZM67.6452 72.0272L68.1048 71.6594L69.9128 73.7279L70.02 73.6359C70.9611 72.8395 71.8563 71.9903 72.7013 71.0925L75.7657 74.1569C74.8279 75.1559 73.8356 76.1021 72.7933 76.9914L67.6452 72.0272ZM74.8617 68.4572L75.1988 67.9976H78.1405L77.8341 68.4572H74.8617ZM77.5123 68.7483C76.5773 70.0919 75.5536 71.3716 74.448 72.5787L72.8086 70.9546C73.4674 70.2345 74.0956 69.4991 74.6625 68.7483H77.5123ZM75.3979 67.7064C75.6737 67.3234 75.9495 66.925 76.2406 66.4807H78.9832C78.7381 66.8944 78.4776 67.3081 78.2171 67.7064H75.3979ZM75.0149 67.7064L74.448 68.4572C73.8658 69.208 73.2376 69.9894 72.5787 70.6788L70.8474 68.9475C71.9739 67.7147 72.9987 66.3927 73.9117 64.9945L75.9648 66.3275C75.689 66.8791 75.4286 67.3387 75.1221 67.7677L75.0149 67.7064ZM72.3796 70.8934C71.6084 71.7311 70.7899 72.524 69.9281 73.2682L68.3193 71.399C69.1364 70.697 69.9139 69.9502 70.6482 69.162L72.3796 70.8934ZM74.6165 72.7166C75.792 71.4509 76.8774 70.1044 77.8647 68.687H78.7687L79.5195 69.4378C78.4326 71.0637 77.2184 72.6007 75.8882 74.0343L74.6165 72.7166ZM78.8913 68.3959H78.0639L78.3703 67.9363H79.642L80.163 68.4572C80.0098 68.7023 79.8565 68.9475 79.688 69.1926L78.8913 68.3959ZM79.7646 67.6452H78.5542C78.8147 67.2468 79.0751 66.8331 79.3203 66.4194H80.2856L81.067 67.2008L80.4541 68.2121L79.7646 67.6452ZM80.2702 66.113H79.4735C80.154 64.9563 80.7629 63.759 81.2968 62.5277H83.3499C82.7258 64.0388 82.0042 65.5076 81.1895 66.925L80.2702 66.113ZM79.1517 66.113H76.3019L74.1569 64.826C74.6165 64.1058 75.0609 63.2938 75.4592 62.6043H81.067C80.5381 63.8352 79.9343 65.0325 79.259 66.1896L79.1517 66.113ZM73.8351 64.5808L72.0425 63.4317C72.2417 63.1406 72.4255 62.8341 72.6094 62.5124H75.0455C74.7698 63.3091 74.3714 63.9986 73.9424 64.6728L73.8351 64.5808ZM72.3949 62.2979C72.1804 62.6809 71.9506 63.0487 71.7361 63.401L71.6594 63.5083L73.6666 64.8106C72.755 66.1956 71.7301 67.5024 70.6023 68.7177L64.9486 63.064L64.9639 63.4317L70.6329 69.0854C69.9039 69.8735 69.1315 70.6203 68.3193 71.3224L66.7871 69.5297L66.6799 69.6217L65.8678 70.3111L65.0864 70.9087C64.6881 71.2151 64.305 71.4909 63.9067 71.7514V67.7371L60.3367 64.1825C62.8264 62.2905 64.8496 59.8533 66.2509 57.0579L69.3765 60.3674H73.6053C73.3908 60.8423 73.1456 61.3326 72.8852 61.8076C72.7626 61.8995 72.6247 62.1753 72.5021 62.3898L72.3949 62.2979ZM60.6738 76.0874C58.1109 77.2467 55.3981 78.041 52.6146 78.4469L52.2775 76.1334H52.1396C49.4658 76.5012 46.7542 76.5012 44.0804 76.1334H43.9272L43.6054 78.4469C40.8175 78.039 38.0999 77.2449 35.5309 76.0874L36.5115 73.9577H36.3736C35.8986 73.7432 35.4237 73.498 34.9793 73.2682V69.2386L36.5115 67.7064C38.4892 68.8764 40.6332 69.7391 42.87 70.2652V71.1845L39.2847 74.7697C39.1892 74.7074 39.077 74.6754 38.963 74.6778C38.8357 74.6778 38.7113 74.7155 38.6055 74.7863C38.4996 74.857 38.4172 74.9575 38.3684 75.0751C38.3197 75.1926 38.307 75.322 38.3318 75.4469C38.3567 75.5717 38.4179 75.6864 38.5079 75.7763C38.5979 75.8663 38.7126 75.9276 38.8374 75.9525C38.9623 75.9773 39.0916 75.9646 39.2092 75.9158C39.3268 75.8671 39.4273 75.7847 39.498 75.6788C39.5687 75.573 39.6065 75.4486 39.6065 75.3213C39.6109 75.1904 39.5734 75.0616 39.4992 74.9536L43.1458 71.307V67.6145C43.7127 67.7524 44.2796 67.875 44.8312 67.9669V71.7207L42.7934 73.7585C42.6868 73.6799 42.5581 73.637 42.4257 73.6359C42.3318 73.6215 42.2359 73.6275 42.1446 73.6536C42.0532 73.6797 41.9686 73.7252 41.8965 73.7871C41.8244 73.8489 41.7665 73.9256 41.7269 74.0119C41.6872 74.0983 41.6667 74.1921 41.6667 74.2871C41.6667 74.3821 41.6872 74.476 41.7269 74.5623C41.7665 74.6486 41.8244 74.7253 41.8965 74.7871C41.9686 74.849 42.0532 74.8945 42.1446 74.9206C42.2359 74.9467 42.3318 74.9527 42.4257 74.9383C42.5102 74.9383 42.5939 74.9216 42.6719 74.8893C42.75 74.857 42.8209 74.8096 42.8807 74.7498C42.9405 74.69 42.9879 74.6191 43.0202 74.541C43.0525 74.463 43.0692 74.3793 43.0692 74.2948C43.0716 74.1807 43.0396 74.0686 42.9773 73.973L45.0457 71.8433V70.7248L45.9343 70.8321V72.0884L42.441 75.689V76.5777C42.3064 76.6229 42.1894 76.7094 42.1069 76.825C42.0244 76.9405 41.9804 77.0792 41.9813 77.2212C41.9813 77.3919 42.0491 77.5556 42.1698 77.6762C42.2905 77.7969 42.4542 77.8647 42.6249 77.8647C42.7955 77.8647 42.9592 77.7969 43.0799 77.6762C43.2006 77.5556 43.2684 77.3919 43.2684 77.2212C43.2663 77.0733 43.2157 76.9302 43.1244 76.814C43.033 76.6977 42.9059 76.6147 42.7627 76.5777V75.689L46.3021 72.1497V70.8014C46.9149 70.8014 47.5278 70.8014 48.156 70.8014C48.7842 70.8014 49.397 70.8014 50.0099 70.8014V72.1497L53.4879 75.689V76.4551C53.3447 76.4921 53.2177 76.5751 53.1263 76.6914C53.0349 76.8077 52.9843 76.9508 52.9823 77.0986C53.0096 77.2377 53.081 77.3644 53.1859 77.4597C53.2909 77.555 53.4238 77.6139 53.5649 77.6276C53.706 77.6414 53.8477 77.6093 53.9691 77.5361C54.0905 77.4629 54.185 77.3524 54.2387 77.2212C54.2367 77.0733 54.1861 76.9302 54.0947 76.814C54.0033 76.6977 53.8763 76.6147 53.7331 76.5777V75.689L50.1938 72.1651V70.9087L51.0824 70.8014V71.9199L53.2121 74.0496C53.1873 74.1554 53.1873 74.2656 53.2121 74.3714C53.2152 74.498 53.2554 74.6208 53.328 74.7246C53.4005 74.8284 53.502 74.9085 53.6198 74.9549C53.7376 75.0012 53.8665 75.0118 53.9903 74.9853C54.1141 74.9587 54.2273 74.8963 54.3158 74.8057C54.4043 74.7151 54.4641 74.6005 54.4877 74.4761C54.5113 74.3517 54.4977 74.2231 54.4486 74.1064C54.3994 73.9897 54.317 73.8901 54.2115 73.82C54.106 73.75 53.9823 73.7126 53.8556 73.7125C53.7232 73.7136 53.5945 73.7565 53.4879 73.8351L51.4501 71.7973V68.0282C52.0017 67.9363 52.5533 67.8137 53.1202 67.6758V71.4143L56.7821 75.0609C56.7035 75.1674 56.6606 75.2961 56.6595 75.4286C56.6563 75.5746 56.7016 75.7175 56.7885 75.8349C56.8753 75.9523 56.9987 76.0375 57.1392 76.0772C57.2798 76.1169 57.4295 76.1087 57.5649 76.0541C57.7003 75.9994 57.8137 75.9013 57.8873 75.7751C57.9609 75.649 57.9904 75.502 57.9714 75.3572C57.9523 75.2124 57.8857 75.0781 57.782 74.9753C57.6783 74.8725 57.5434 74.807 57.3985 74.7892C57.2535 74.7714 57.1068 74.8023 56.9813 74.877L53.4113 71.2917V70.3724C55.6473 69.8437 57.7909 68.9811 59.7698 67.8137L61.302 69.3459V73.3142C60.8577 73.544 60.398 73.7892 59.9077 74.0037H59.7851L60.6738 76.0874ZM60.7964 76.3479L61.8995 78.6155C61.1488 78.9679 60.3674 79.2743 59.586 79.5654C57.4699 80.33 55.2837 80.8843 53.0589 81.2202L52.7065 78.7534C55.5008 78.3268 58.223 77.5173 60.7964 76.3479ZM52.3235 78.4929C49.5228 78.881 46.6819 78.881 43.8812 78.4929L44.1723 76.4551C46.7795 76.8228 49.4253 76.8228 52.0324 76.4551L52.3235 78.4929ZM25.2654 27.1806C24.1427 28.4111 23.1181 29.7277 22.2011 31.1183L20.1479 29.8006C20.4697 29.3103 20.7761 28.8507 21.0979 28.4216L21.6495 27.6709C22.2589 26.892 22.9084 26.1454 23.5953 25.4339L25.2654 27.1806ZM23.7332 25.2347C24.5082 24.4007 25.3265 23.608 26.1847 22.8599L27.8088 24.7138C26.9916 25.4211 26.2141 26.173 25.4799 26.9661L23.7332 25.2347ZM21.4809 27.4411H18.5851C19.5204 26.0928 20.5441 24.808 21.6495 23.5953L23.2736 25.2347C22.676 25.9549 22.0632 26.6597 21.4656 27.4411H21.4809ZM21.2664 27.7322L20.9294 28.1918H18.0795C18.1714 28.0386 18.2787 27.8854 18.386 27.7322H21.2664ZM20.7148 28.4829C20.4391 28.866 20.1633 29.2643 19.8875 29.7087H17.1296C17.3747 29.295 17.6199 28.8813 17.8957 28.4829H20.7148ZM16.8078 29.7087H15.9345L15.1531 28.9273C15.3523 28.5902 15.5514 28.2531 15.7659 27.916L16.3328 28.4829H17.5279C17.2828 28.8813 17.0376 29.295 16.7925 29.724L16.8078 29.7087ZM15.8426 29.9845H16.6393C15.9728 31.1515 15.3692 32.3534 14.8313 33.5851H12.8701C13.4827 32.0715 14.1995 30.6022 15.0152 29.1877L15.8426 29.9845ZM16.9764 29.9845H19.9181L22.0478 31.3634C21.5882 32.0835 21.1592 32.819 20.7608 33.5851H15.1224C15.6707 32.353 16.2845 31.1511 16.961 29.9845H16.9764ZM22.293 31.5166L24.0703 32.6658C23.8864 32.9518 23.7026 33.2582 23.5187 33.5851H21.0672C21.435 32.8803 21.8487 32.1908 22.2777 31.5166H22.293ZM23.7179 33.7996C23.9477 33.4012 24.1622 33.0488 24.3921 32.6964V32.5738L22.4309 31.2562C23.3475 29.8797 24.3722 28.5784 25.4952 27.3645L31.1489 33.0182L31.2562 32.7883L25.6025 27.1193C26.3379 26.3379 27.1346 25.5871 27.916 24.8823L29.4482 26.675L29.724 26.6597L30.5207 25.9855L31.3021 25.3726L32.4972 24.5299V28.4829L36.0519 32.0376C33.5587 33.9259 31.5349 36.364 30.1377 39.1621L26.8282 35.8527H22.6147C22.8292 35.3777 23.0744 34.9027 23.3349 34.4277L23.7179 33.7996ZM30.9497 25.2194C30.7505 25.3573 30.5667 25.5105 30.3828 25.6637L28.8507 24.1316L29.4176 23.6872L30.9497 25.2194ZM29.724 23.5953C30.6007 22.9282 31.5165 22.3143 32.4666 21.7567V24.1929C32.0376 24.4687 31.6239 24.7598 31.1949 25.0815L29.724 23.5953ZM30.1836 25.8629L29.6014 26.3532L28.2378 24.8211L28.7128 24.438L30.1836 25.8629ZM32.4666 15.3676L31.1642 16.0264V13.9733L32.4666 13.3604V15.3676ZM35.5309 20.1326C38.0966 18.9663 40.8155 18.1718 43.6054 17.7731L43.9272 20.0713H44.0804C46.7528 19.6832 49.4672 19.6832 52.1396 20.0713H52.2775L52.6146 17.7731C55.3996 18.1718 58.1135 18.9663 60.6738 20.1326L59.7085 22.2623H59.8311C60.3214 22.4768 60.7811 22.7067 61.2254 22.9518V26.9048L59.6932 28.437C57.7174 27.2632 55.5728 26.4002 53.3347 25.8782V24.9589L56.9047 21.3737C57.0067 21.4341 57.1232 21.4659 57.2417 21.4656C57.3683 21.4626 57.4912 21.4223 57.595 21.3498C57.6988 21.2773 57.7789 21.1757 57.8252 21.0579C57.8716 20.9401 57.8822 20.8112 57.8556 20.6874C57.8291 20.5636 57.7666 20.4504 57.6761 20.3619C57.5855 20.2735 57.4708 20.2137 57.3464 20.1901C57.222 20.1664 57.0934 20.1801 56.9768 20.2292C56.8601 20.2783 56.7604 20.3608 56.6904 20.4662C56.6203 20.5717 56.5829 20.6955 56.5829 20.8221C56.584 20.9545 56.6269 21.0832 56.7055 21.1898L53.0436 24.8364V28.5749C52.4767 28.437 51.9251 28.3144 51.3735 28.2225V24.4533L53.4113 22.4309C53.5223 22.4985 53.6491 22.5355 53.779 22.5381C53.9063 22.5381 54.0307 22.5004 54.1366 22.4297C54.2424 22.359 54.3249 22.2585 54.3736 22.1409C54.4223 22.0233 54.435 21.8939 54.4102 21.7691C54.3854 21.6442 54.3241 21.5296 54.2341 21.4396C54.1441 21.3496 54.0294 21.2883 53.9046 21.2635C53.7798 21.2386 53.6504 21.2514 53.5328 21.3001C53.4152 21.3488 53.3147 21.4313 53.244 21.5371C53.1733 21.6429 53.1355 21.7673 53.1355 21.8946C53.1127 22.0007 53.1127 22.1103 53.1355 22.2164L51.1744 24.3461V25.4492L50.2857 25.3573V24.1009L53.779 20.531V19.6423C53.9336 19.608 54.0701 19.5178 54.1624 19.3891C54.2547 19.2604 54.2963 19.1022 54.2792 18.9448C54.2622 18.7873 54.1876 18.6417 54.0699 18.5358C53.9522 18.4298 53.7995 18.371 53.6411 18.3706C53.5554 18.3686 53.47 18.3837 53.3902 18.4151C53.3103 18.4466 53.2376 18.4936 53.1762 18.5536C53.1148 18.6136 53.066 18.6852 53.0327 18.7643C52.9994 18.8434 52.9823 18.9283 52.9823 19.0141C52.9824 19.1608 53.0326 19.303 53.1245 19.4172C53.2165 19.5315 53.3447 19.6109 53.4879 19.6423V20.531L49.9639 24.055V25.4033C49.3511 25.4033 48.7229 25.4033 48.11 25.4033C47.4971 25.4033 46.869 25.4033 46.2561 25.4033V24.055L42.7168 20.531V19.7496C42.8718 19.7156 43.0087 19.6255 43.1013 19.4967C43.194 19.3679 43.2358 19.2094 43.2187 19.0517C43.2016 18.8939 43.1268 18.7481 43.0087 18.6421C42.8906 18.5361 42.7376 18.4775 42.5789 18.4775C42.4202 18.4775 42.2672 18.5361 42.1491 18.6421C42.031 18.7481 41.9562 18.8939 41.9391 19.0517C41.922 19.2094 41.9638 19.3679 42.0564 19.4967C42.1491 19.6255 42.286 19.7156 42.441 19.7496V20.531L45.965 24.0703V25.3267L45.0763 25.4186V24.3154L42.9466 22.2164C43.0073 22.1201 43.0392 22.0084 43.0385 21.8946C43.0416 21.7631 43.0051 21.6336 42.9339 21.5229C42.8627 21.4123 42.76 21.3255 42.639 21.2737C42.518 21.222 42.3843 21.2076 42.2551 21.2326C42.1259 21.2575 42.0071 21.3205 41.914 21.4136C41.821 21.5067 41.7579 21.6254 41.733 21.7547C41.708 21.8839 41.7224 22.0176 41.7741 22.1386C41.8259 22.2596 41.9127 22.3623 42.0234 22.4335C42.134 22.5047 42.2635 22.5411 42.395 22.5381C42.5249 22.5355 42.6518 22.4985 42.7627 22.4309L44.8005 24.4533V28.1918C44.249 28.2838 43.682 28.4063 43.1151 28.5442V24.8364L39.4686 21.1898C39.5427 21.0818 39.5803 20.953 39.5758 20.8221C39.5758 20.6948 39.5381 20.5704 39.4674 20.4646C39.3967 20.3588 39.2962 20.2763 39.1786 20.2276C39.061 20.1789 38.9316 20.1661 38.8068 20.1909C38.682 20.2158 38.5673 20.2771 38.4773 20.3671C38.3873 20.4571 38.326 20.5717 38.3012 20.6966C38.2764 20.8214 38.2891 20.9508 38.3378 21.0684C38.3865 21.1859 38.469 21.2864 38.5748 21.3572C38.6806 21.4279 38.8051 21.4656 38.9323 21.4656C39.0464 21.468 39.1585 21.436 39.2541 21.3737L42.8394 24.9589V25.8782C40.6003 26.3973 38.4554 27.2605 36.4809 28.437L34.9487 26.9048V22.9825C35.393 22.7373 35.868 22.5075 36.343 22.293H36.4809L35.5309 20.1326ZM35.4083 19.8721L34.3205 17.5586C35.0713 17.2215 35.8527 16.9151 36.6188 16.624C38.7326 15.8523 40.9196 15.2979 43.1458 14.9692L43.5135 17.4666C40.7139 17.8749 37.9856 18.6743 35.4083 19.8415V19.8721ZM43.8812 17.7271C46.6819 17.339 49.5228 17.339 52.3235 17.7271L52.0324 19.7496C49.4239 19.4024 46.7808 19.4024 44.1723 19.7496L43.8812 17.7271ZM84.1619 43.774C84.1619 43.5901 84.1619 43.4063 84.0853 43.2224H85.9086C85.9086 43.4063 85.9086 43.5901 85.9086 43.774H84.1619ZM86.0005 44.0651C86.0771 44.7392 86.1231 45.4134 86.1538 46.0875H84.3611C84.3611 45.4134 84.2692 44.7392 84.1926 44.0651H86.0005ZM81.6798 46.3787H84.0853C84.0853 46.9609 84.0853 47.5431 84.0853 48.0947C84.0853 48.6463 84.0853 49.2285 84.0853 49.8107H81.6798C81.6798 49.2898 81.6798 48.7688 81.6798 48.2785V47.9721C81.7105 47.4205 81.6951 46.8996 81.6798 46.3787ZM84.0547 42.9466C83.7804 41.0251 83.3499 39.1292 82.7677 37.2776H84.6522C85.2037 39.1326 85.6084 41.0281 85.8626 42.9466H84.0547ZM82.6911 37.0018C82.5991 36.7056 82.5072 36.4298 82.4153 36.1744H84.3152C84.4071 36.4349 84.4837 36.7107 84.5756 37.0018H82.6911ZM82.4459 37.1857C83.3619 40.0723 83.9076 43.0635 84.07 46.0875H81.6645C81.5284 43.4921 81.0914 40.9213 80.3622 38.4267V38.2888L77.7881 39.0396C77.4935 38.0512 77.1457 37.0794 76.7462 36.1285H82.1548C82.2161 36.4962 82.3387 36.8179 82.4459 37.1857ZM79.0751 47.9108C79.0559 45.0326 78.6383 42.1709 77.8341 39.4073L80.1323 38.7331C80.8342 41.1957 81.2557 43.7296 81.3887 46.2867C81.3887 46.823 81.3887 47.3746 81.3887 47.9108H79.0751ZM81.4347 48.3705C81.4347 48.9067 81.4347 49.4583 81.4347 49.9946C81.3017 52.5517 80.8802 55.0856 80.1783 57.5482L77.88 56.874C78.6842 54.1104 79.1019 51.2487 79.1211 48.3705H81.4347ZM77.4664 39.1775L75.3979 39.775C75.0328 38.5449 74.5823 37.3418 74.0496 36.1744H76.3938C76.8083 37.1542 77.1664 38.1568 77.4664 39.1775ZM73.9271 35.8527C73.7125 35.4083 73.4827 34.9487 73.2376 34.5044H81.4806C81.6798 34.9793 81.8484 35.4237 82.0016 35.8527H73.9271ZM75.1681 39.9589V40.0968L77.5123 39.4073C78.3111 42.1455 78.7237 44.9819 78.7381 47.8342H76.3019V48.2939H78.7534C78.7404 51.1413 78.3278 53.9728 77.5277 56.7055L75.1834 56.016V56.1539C74.8049 57.4645 74.3286 58.7449 73.7585 59.9843H69.5604L64.6421 55.0507H54.8209C55.4097 54.4846 55.9245 53.8462 56.3531 53.1508H65.9598L67.492 54.683C67.3683 54.8399 67.3033 55.0349 67.3081 55.2346C67.3081 55.4225 67.3638 55.6061 67.4682 55.7624C67.5726 55.9186 67.7209 56.0403 67.8945 56.1122C68.0681 56.1841 68.2591 56.2029 68.4434 56.1663C68.6276 56.1296 68.7969 56.0392 68.9297 55.9063C69.0626 55.7735 69.1531 55.6042 69.1897 55.4199C69.2264 55.2356 69.2076 55.0446 69.1357 54.8711C69.0638 54.6975 68.942 54.5491 68.7858 54.4447C68.6296 54.3404 68.4459 54.2846 68.258 54.2846C68.0552 54.2894 67.8582 54.3533 67.6911 54.4685L67.3694 54.1468C67.5858 53.4572 67.7648 52.7565 67.9056 52.0477H72.1191L72.6094 51.5574H75.3367C75.3706 51.6993 75.4507 51.826 75.5644 51.9175C75.678 52.009 75.8189 52.0602 75.9648 52.063C76.0899 52.066 76.2132 52.0334 76.3204 51.969C76.4275 51.9045 76.5142 51.8109 76.5701 51.699C76.626 51.5872 76.649 51.4617 76.6363 51.3373C76.6235 51.2129 76.5756 51.0947 76.4982 50.9964C76.4208 50.8982 76.317 50.8241 76.199 50.7827C76.081 50.7413 75.9536 50.7343 75.8318 50.7626C75.7099 50.7909 75.5987 50.8533 75.511 50.9425C75.4233 51.0317 75.3629 51.144 75.3367 51.2663H72.8545L74.2028 49.9026H76.4551C76.4881 50.1274 76.6005 50.3329 76.772 50.4819C76.9434 50.6308 77.1626 50.7134 77.3898 50.7147C77.6417 50.7147 77.8833 50.6146 78.0615 50.4365C78.2396 50.2583 78.3397 50.0167 78.3397 49.7648C78.3397 49.5128 78.2396 49.2712 78.0615 49.093C77.8833 48.9149 77.6417 48.8148 77.3898 48.8148C77.1626 48.8161 76.9434 48.8987 76.772 49.0476C76.6005 49.1966 76.4881 49.4021 76.4551 49.6269H74.1569L72.0118 51.7566H67.9056C68.1328 50.5544 68.2457 49.3334 68.2427 48.11C68.246 46.8764 68.1331 45.6452 67.9056 44.4328H71.9506L74.1569 46.5778H76.4551C76.4881 46.8026 76.6005 47.0081 76.772 47.157C76.9434 47.306 77.1626 47.3886 77.3898 47.3899C77.6229 47.3603 77.8372 47.2468 77.9926 47.0705C78.1479 46.8942 78.2337 46.6673 78.2337 46.4323C78.2337 46.1973 78.1479 45.9704 77.9926 45.7941C77.8372 45.6178 77.6229 45.5042 77.3898 45.4747C77.1626 45.4759 76.9434 45.5585 76.772 45.7075C76.6005 45.8565 76.4881 46.062 76.4551 46.2867H74.1569L72.8086 44.9384H75.2447C75.2805 45.0965 75.3733 45.2358 75.5054 45.3297C75.6374 45.4237 75.7995 45.4656 75.9605 45.4476C76.1216 45.4296 76.2703 45.3529 76.3783 45.2321C76.4864 45.1113 76.5461 44.9549 76.5461 44.7929C76.5461 44.6308 76.4864 44.4744 76.3783 44.3537C76.2703 44.2329 76.1216 44.1561 75.9605 44.1381C75.7995 44.1201 75.6374 44.1621 75.5054 44.256C75.3733 44.35 75.2805 44.4893 75.2447 44.6473H72.6247L72.1344 44.157H67.8597C67.7216 43.4224 67.5425 42.696 67.3234 41.9813L67.6452 41.6443C67.8076 41.7702 68.0065 41.8401 68.2121 41.8434C68.4042 41.8465 68.593 41.7921 68.754 41.6872C68.9151 41.5823 69.0412 41.4317 69.1161 41.2547C69.1911 41.0777 69.2115 40.8824 69.1747 40.6937C69.138 40.5051 69.0457 40.3317 68.9098 40.1957C68.7739 40.0598 68.6005 39.9676 68.4119 39.9308C68.2232 39.8941 68.0279 39.9145 67.8509 39.9894C67.6739 40.0644 67.5233 40.1905 67.4184 40.3515C67.3135 40.5126 67.2591 40.7013 67.2621 40.8935C67.2598 41.0928 67.3246 41.287 67.446 41.4451L65.9138 42.9772H56.3531C55.9163 42.2877 55.4023 41.6503 54.8209 41.0774H64.5808L69.5604 36.1744H73.8045C74.3512 37.4113 74.8069 38.6864 75.1681 39.9895V39.9589ZM77.4664 56.9813C77.1661 58.0219 76.8081 59.0449 76.3938 60.0456H74.0496C74.5823 58.8782 75.0328 57.6751 75.3979 56.445L77.4664 56.9813ZM41.8281 55.0814C41.1393 54.4677 40.5455 53.7551 40.0661 52.967H30.1377L29.1265 53.9782C27.9665 50.1834 27.9665 46.1286 29.1265 42.3337L30.1377 43.345H40.0202C40.4993 42.552 41.093 41.8344 41.7822 41.2153C43.1972 39.9574 44.9589 39.1558 46.8369 38.9152C48.7149 38.6747 50.6217 39.0064 52.3082 39.8669C53.0051 40.2363 53.6579 40.6835 54.254 41.1999C54.9432 41.8191 55.5369 42.5367 56.016 43.3296H65.8985L66.9097 42.3184C68.0696 46.1133 68.0696 50.1681 66.9097 53.9629L65.8985 52.9517H56.1999C55.7205 53.7398 55.1267 54.4524 54.4379 55.0661C53.8444 55.586 53.1912 56.0335 52.492 56.399C51.1655 57.0744 49.6981 57.4265 48.2096 57.4265C46.7211 57.4265 45.2537 57.0744 43.9272 56.399C43.2228 56.0282 42.5645 55.5757 41.966 55.0507L41.8281 55.0814ZM67.5379 55.2346C67.5419 55.0585 67.6147 54.8909 67.7407 54.7678C67.8667 54.6446 68.0359 54.5757 68.2121 54.5758C68.3868 54.5758 68.5544 54.6452 68.6779 54.7687C68.8015 54.8923 68.8709 55.0599 68.8709 55.2346C68.8709 55.4108 68.802 55.58 68.6789 55.706C68.5558 55.832 68.3882 55.9047 68.2121 55.9087C68.0333 55.9087 67.8618 55.8377 67.7354 55.7113C67.6089 55.5849 67.5379 55.4134 67.5379 55.2346ZM75.5665 51.4042C75.5665 51.3107 75.6036 51.2211 75.6697 51.155C75.7358 51.0889 75.8254 51.0518 75.9189 51.0518C75.9664 51.0497 76.0139 51.0573 76.0584 51.0741C76.103 51.0908 76.1437 51.1165 76.178 51.1494C76.2124 51.1823 76.2397 51.2219 76.2584 51.2657C76.277 51.3095 76.2866 51.3566 76.2866 51.4042C76.2866 51.4525 76.2771 51.5003 76.2586 51.5449C76.2401 51.5895 76.213 51.63 76.1789 51.6642C76.1447 51.6983 76.1042 51.7254 76.0596 51.7439C76.015 51.7624 75.9672 51.7719 75.9189 51.7719C75.8713 51.7719 75.8242 51.7623 75.7804 51.7437C75.7366 51.725 75.697 51.6977 75.6641 51.6633C75.6312 51.629 75.6056 51.5883 75.5888 51.5437C75.572 51.4992 75.5644 51.4517 75.5665 51.4042ZM76.7156 49.7648C76.7196 49.5886 76.7924 49.4211 76.9184 49.2979C77.0444 49.1748 77.2136 49.1059 77.3898 49.1059C77.5645 49.1059 77.7321 49.1753 77.8556 49.2989C77.9792 49.4224 78.0486 49.59 78.0486 49.7648C78.0486 49.9409 77.9797 50.1101 77.8566 50.2361C77.7334 50.3621 77.5659 50.4349 77.3898 50.4389C77.211 50.4389 77.0395 50.3679 76.9131 50.2415C76.7866 50.115 76.7156 49.9436 76.7156 49.7648ZM76.7156 46.4246C76.7156 46.2458 76.7866 46.0744 76.9131 45.9479C77.0395 45.8215 77.211 45.7505 77.3898 45.7505C77.5659 45.7545 77.7334 45.8273 77.8566 45.9533C77.9797 46.0793 78.0486 46.2485 78.0486 46.4246C78.0486 46.5994 77.9792 46.7669 77.8556 46.8905C77.7321 47.014 77.5645 47.0835 77.3898 47.0835C77.2136 47.0835 77.0444 47.0146 76.9184 46.8915C76.7924 46.7683 76.7196 46.6008 76.7156 46.4246ZM75.5665 44.7699C75.5665 44.6764 75.6036 44.5868 75.6697 44.5207C75.7358 44.4546 75.8254 44.4175 75.9189 44.4175C75.9724 44.4064 76.0276 44.4074 76.0807 44.4203C76.1338 44.4333 76.1833 44.4579 76.2257 44.4923C76.268 44.5268 76.3022 44.5703 76.3256 44.6196C76.3491 44.669 76.3613 44.7229 76.3613 44.7775C76.3613 44.8322 76.3491 44.8861 76.3256 44.9354C76.3022 44.9848 76.268 45.0283 76.2257 45.0627C76.1833 45.0972 76.1338 45.1218 76.0807 45.1348C76.0276 45.1477 75.9724 45.1487 75.9189 45.1376C75.8713 45.1376 75.8242 45.1281 75.7804 45.1094C75.7366 45.0907 75.697 45.0634 75.6641 45.029C75.6312 44.9947 75.6056 44.954 75.5888 44.9094C75.572 44.8649 75.5644 44.8174 75.5665 44.7699ZM67.5379 40.9548C67.5379 40.8663 67.5554 40.7786 67.5892 40.6968C67.6231 40.615 67.6728 40.5407 67.7354 40.4781C67.798 40.4155 67.8723 40.3658 67.9541 40.3319C68.0359 40.2981 68.1235 40.2806 68.2121 40.2806C68.3715 40.3049 68.5169 40.3854 68.622 40.5077C68.7271 40.63 68.7849 40.7859 68.7849 40.9471C68.7849 41.1084 68.7271 41.2643 68.622 41.3865C68.5169 41.5088 68.3715 41.5894 68.2121 41.6136C68.0359 41.6137 67.8667 41.5447 67.7407 41.4216C67.6147 41.2985 67.5419 41.1309 67.5379 40.9548ZM64.4736 40.8169H59.2336L61.4092 38.6412C61.572 38.7648 61.7718 38.8296 61.9761 38.8251C62.2281 38.8251 62.4697 38.725 62.6479 38.5468C62.826 38.3687 62.9261 38.1271 62.9261 37.8751C62.9261 37.6232 62.826 37.3816 62.6479 37.2034C62.4697 37.0253 62.2281 36.9252 61.9761 36.9252C61.7242 36.9252 61.4826 37.0253 61.3044 37.2034C61.1263 37.3816 61.0262 37.6232 61.0262 37.8751C61.0216 38.0794 61.0865 38.2793 61.2101 38.442L58.8352 40.8169H54.4992C53.9543 40.3275 53.3524 39.9057 52.7065 39.5605L60.0456 32.2214C62.5419 34.0962 64.5625 36.5314 65.9445 39.3307L64.4736 40.8169ZM61.3173 37.8751C61.3213 37.699 61.3941 37.5314 61.5201 37.4083C61.6461 37.2852 61.8153 37.2162 61.9915 37.2163C62.1662 37.2163 62.3338 37.2857 62.4573 37.4093C62.5809 37.5328 62.6503 37.7004 62.6503 37.8751C62.6503 38.0513 62.5814 38.2205 62.4583 38.3465C62.3352 38.4725 62.1676 38.5453 61.9915 38.5493C61.9017 38.5513 61.8123 38.5354 61.7288 38.5024C61.6452 38.4695 61.5691 38.4201 61.5048 38.3573C61.4406 38.2945 61.3896 38.2195 61.3547 38.1367C61.3199 38.0539 61.302 37.965 61.302 37.8751H61.3173ZM60.015 31.8384C59.3823 31.3705 58.7223 30.9407 58.0385 30.5514L61.5318 27.058V23.1357C62.2213 23.5034 62.8954 23.9018 63.5236 24.3154V28.3297L60.015 31.8384ZM57.778 30.4135C56.392 29.6553 54.9211 29.0639 53.396 28.6515V26.1694C55.5509 26.6875 57.6165 27.5241 59.5247 28.6515L57.778 30.4135ZM61.4552 22.7526C61.0262 22.5228 60.5665 22.293 60.0916 22.0785L60.9496 20.1939C61.8178 20.5923 62.6758 21.0366 63.5236 21.5269V23.963C62.8495 23.5953 62.16 23.151 61.4399 22.7679L61.4552 22.7526ZM61.0722 19.9334L62.2213 17.4666H62.0834C61.3173 17.1142 60.5512 16.7925 59.7239 16.5014V13.9886C61.0141 14.4251 62.2778 14.9367 63.5083 15.5208V21.2205C62.7116 20.7608 61.8995 20.3318 61.0568 19.9488L61.0722 19.9334ZM61.8995 17.5586L60.8577 19.8415C58.2659 18.6702 55.5218 17.8707 52.7065 17.4666L53.0589 14.9845C55.2851 15.3132 57.4721 15.8676 59.586 16.6393C60.3674 16.9151 61.0875 17.2215 61.8995 17.5586ZM56.9813 20.8221C56.9971 20.7457 57.0368 20.6764 57.0946 20.624C57.1525 20.5717 57.2255 20.5391 57.303 20.531C57.3506 20.5309 57.3977 20.5405 57.4415 20.5592C57.4853 20.5779 57.5249 20.6052 57.5578 20.6396C57.5907 20.6739 57.6163 20.7146 57.6331 20.7591C57.6499 20.8037 57.6575 20.8512 57.6554 20.8987C57.6554 20.9922 57.6183 21.0818 57.5522 21.1479C57.4861 21.214 57.3965 21.2511 57.303 21.2511C57.2471 21.2574 57.1904 21.2502 57.1378 21.2302C57.0851 21.2101 57.0381 21.1777 57.0006 21.1356C56.9631 21.0936 56.9362 21.0432 56.9221 20.9887C56.9081 20.9341 56.9074 20.877 56.92 20.8221H56.9813ZM53.5186 21.8946C53.5186 21.8219 53.5401 21.7508 53.5805 21.6903C53.6209 21.6298 53.6784 21.5827 53.7456 21.5549C53.8128 21.5271 53.8867 21.5198 53.958 21.534C54.0294 21.5481 54.0949 21.5832 54.1463 21.6346C54.1977 21.686 54.2328 21.7515 54.2469 21.8229C54.2611 21.8942 54.2539 21.9681 54.226 22.0353C54.1982 22.1025 54.1511 22.16 54.0906 22.2004C54.0301 22.2408 53.959 22.2623 53.8863 22.2623C53.8331 22.2713 53.7786 22.2685 53.7267 22.2541C53.6747 22.2397 53.6266 22.214 53.5857 22.179C53.5447 22.1439 53.512 22.1002 53.4898 22.0511C53.4676 22.0019 53.4565 21.9485 53.4573 21.8946H53.5186ZM51.1744 25.7404V28.1918C50.1603 28.0364 49.1359 27.9596 48.11 27.962C47.0842 27.9608 46.0598 28.0376 45.0457 28.1918V25.7404L46.1029 25.6331C46.7464 25.5718 47.4052 25.5412 48.0794 25.5412C48.7382 25.5412 49.4124 25.5412 50.0559 25.6331L51.1744 25.7404ZM53.6258 19.3972C53.5405 19.386 53.4623 19.3439 53.4059 19.279C53.3494 19.2141 53.3187 19.1308 53.3194 19.0448C53.3193 18.9972 53.3289 18.9501 53.3476 18.9063C53.3663 18.8625 53.3936 18.823 53.428 18.79C53.4623 18.7571 53.503 18.7315 53.5475 18.7147C53.5921 18.6979 53.6396 18.6903 53.6871 18.6924C53.7806 18.6924 53.8702 18.7295 53.9363 18.7956C54.0024 18.8617 54.0395 18.9513 54.0395 19.0448C54.0395 19.1382 54.0024 19.2279 53.9363 19.294C53.8702 19.36 53.7806 19.3972 53.6871 19.3972H53.6258ZM42.6861 19.3972H42.5636C42.4783 19.386 42.4 19.3439 42.3436 19.279C42.2872 19.2141 42.2564 19.1308 42.2571 19.0448C42.2571 18.9473 42.2959 18.8537 42.3648 18.7848C42.4338 18.7158 42.5273 18.6771 42.6249 18.6771C42.7224 18.6771 42.8159 18.7158 42.8849 18.7848C42.9538 18.8537 42.9926 18.9473 42.9926 19.0448C42.9926 19.0911 42.9835 19.1369 42.9657 19.1796C42.948 19.2224 42.9221 19.2612 42.8894 19.294C42.8566 19.3267 42.8178 19.3526 42.775 19.3704C42.7323 19.3881 42.6865 19.3972 42.6402 19.3972H42.6861ZM42.7934 21.8946C42.7933 21.968 42.7713 22.0397 42.7302 22.1004C42.6891 22.1612 42.6307 22.2082 42.5626 22.2356C42.4945 22.2629 42.4198 22.2692 42.3481 22.2537C42.2764 22.2383 42.2109 22.2017 42.1602 22.1487C42.1094 22.0958 42.0757 22.0288 42.0633 21.9565C42.0508 21.8842 42.0603 21.8098 42.0905 21.743C42.1207 21.6761 42.1702 21.6198 42.2327 21.5813C42.2951 21.5428 42.3677 21.5238 42.441 21.5269C42.529 21.5383 42.6094 21.5826 42.6662 21.6507C42.723 21.7189 42.752 21.806 42.7474 21.8946H42.7934ZM39.346 20.8221C39.346 20.9196 39.3073 21.0132 39.2383 21.0821C39.1693 21.1511 39.0758 21.1898 38.9783 21.1898C38.8808 21.1898 38.7872 21.1511 38.7183 21.0821C38.6493 21.0132 38.6106 20.9196 38.6106 20.8221C38.6106 20.7246 38.6493 20.631 38.7183 20.5621C38.7872 20.4931 38.8808 20.4544 38.9783 20.4544C39.0758 20.4544 39.1693 20.4931 39.2383 20.5621C39.3073 20.631 39.346 20.7246 39.346 20.8221ZM42.8853 26.1694V28.6515C41.3584 29.0584 39.8869 29.6501 38.5033 30.4135L36.6954 28.6515C38.6083 27.5226 40.6791 26.686 42.8394 26.1694H42.8853ZM38.5493 30.7659C39.9727 29.9693 41.4915 29.3566 43.0692 28.9426C43.7127 28.774 44.3715 28.6362 45.015 28.5289C46.036 28.334 47.071 28.2213 48.11 28.1918C49.1363 28.1937 50.1608 28.2756 51.1744 28.437C51.8179 28.5442 52.4614 28.6821 53.1202 28.8507C54.7243 29.2585 56.2692 29.8713 57.7167 30.6739C58.4392 31.0675 59.1352 31.5076 59.8005 31.9916L52.4307 39.3766C51.0904 38.7017 49.6107 38.3502 48.11 38.3502C46.6094 38.3502 45.1296 38.7017 43.7893 39.3766L36.4196 31.9916C37.0839 31.52 37.7801 31.0951 38.5033 30.7199L38.5493 30.7659ZM43.5135 39.5605C42.8622 39.9046 42.2551 40.3265 41.7056 40.8169H37.3848L35.01 38.442C35.1277 38.2763 35.1919 38.0784 35.1938 37.8751C35.1938 37.6232 35.0938 37.3816 34.9156 37.2034C34.7375 37.0253 34.4958 36.9252 34.2439 36.9252C33.992 36.9252 33.7503 37.0253 33.5722 37.2034C33.394 37.3816 33.2939 37.6232 33.2939 37.8751C33.2939 38.1271 33.394 38.3687 33.5722 38.5468C33.7503 38.725 33.992 38.8251 34.2439 38.8251C34.4479 38.8273 34.647 38.7627 34.8108 38.6412L36.9712 40.8169H31.7618L30.2296 39.2847C31.613 36.4819 33.6396 34.0459 36.1438 32.1755L43.5135 39.5605ZM34.8874 37.8751C34.8875 38.0513 34.8185 38.2205 34.6954 38.3465C34.5723 38.4725 34.4047 38.5453 34.2286 38.5493C34.14 38.5493 34.0524 38.5318 33.9706 38.498C33.8888 38.4641 33.8145 38.4144 33.7519 38.3518C33.6893 38.2892 33.6396 38.2149 33.6057 38.1331C33.5719 38.0513 33.5544 37.9637 33.5544 37.8751C33.5584 37.699 33.6312 37.5314 33.7572 37.4083C33.8832 37.2852 34.0524 37.2162 34.2286 37.2163C34.3164 37.2143 34.4037 37.2298 34.4854 37.262C34.5671 37.2942 34.6416 37.3424 34.7044 37.4038C34.7672 37.4651 34.8171 37.5385 34.8512 37.6194C34.8852 37.7004 34.9027 37.7873 34.9027 37.8751H34.8874ZM22.293 35.8527H14.2031C14.3563 35.4237 14.5249 34.9793 14.7241 34.5044H22.9671C22.7373 34.9793 22.5075 35.439 22.293 35.8527ZM22.1551 36.1438C21.6289 37.3138 21.1785 38.5165 20.8068 39.7444L18.7384 39.1468C19.0438 38.106 19.407 37.0829 19.8262 36.0825L22.1551 36.1438ZM19.5198 36.1438C19.1214 37.0937 18.769 38.0743 18.4626 39.0549L15.9345 38.3348V38.4727C15.1978 40.9655 14.7606 43.5373 14.6321 46.1335H12.15C12.3049 43.1085 12.8508 40.1164 13.7741 37.2316C13.8814 36.8639 13.9886 36.5421 14.1112 36.2204L19.5198 36.1438ZM14.7854 47.8342C14.7854 47.298 14.7854 46.7464 14.7854 46.2101C14.9107 43.6522 15.3324 41.1174 16.0417 38.6565L18.34 39.3307C17.5289 42.0928 17.1111 44.9555 17.0989 47.8342H14.7854ZM18.386 56.7974L16.0877 57.4716C15.3783 55.0107 14.9567 52.4759 14.8313 49.918C14.8313 49.3817 14.8313 48.8301 14.8313 48.2939H17.1909C17.1852 51.1807 17.5876 54.0538 18.386 56.828V56.7974ZM14.5402 49.7801H12.1347C12.1347 49.1978 12.1347 48.6156 12.1347 48.064C12.1347 47.5125 12.1347 46.9302 12.1347 46.348H14.5402C14.5402 46.869 14.5402 47.3797 14.5402 47.8802V48.1866C14.5096 48.7484 14.5096 49.2898 14.5402 49.8107V49.7801ZM13.529 36.9711H11.6444C11.7363 36.6647 11.813 36.4042 11.9049 36.1438H13.8048C13.7128 36.4196 13.6209 36.7056 13.529 37.0018V36.9711ZM13.437 37.2469C12.867 39.1008 12.4419 40.9962 12.1653 42.916H10.3421C10.6037 40.9988 11.0083 39.1038 11.5525 37.2469H13.437ZM12.1347 43.1918C12.1347 43.3756 12.1347 43.5595 12.1347 43.7433H10.2348C10.2348 43.5595 10.2348 43.3756 10.2348 43.1918H12.1347ZM12.0275 44.0344C12.0275 44.7086 11.8896 45.3828 11.8589 46.0569H10.051C10.051 45.3828 10.1429 44.7086 10.2042 44.0344H12.0275ZM11.8436 46.348C11.8436 46.9302 11.8436 47.5125 11.8436 48.064C11.8436 48.6156 11.8436 49.1978 11.8436 49.7801H10.0356C10.0356 49.2285 10.0356 48.6463 10.0356 48.064C10.0356 47.4818 10.0356 46.8996 10.0356 46.348H11.8436ZM11.8436 50.0559C11.8436 50.7453 11.9355 51.4195 12.0121 52.0936H10.2042C10.2042 51.4195 10.0816 50.7453 10.051 50.0559H11.8436ZM12.0428 52.3694C12.0428 52.5533 12.0428 52.7525 12.0428 52.9363H10.3114C10.3114 52.7525 10.3114 52.5686 10.3114 52.3694H12.0428ZM12.15 53.2121C12.4282 55.1316 12.8533 57.0268 13.4217 58.8812H11.5525C11.0083 57.0243 10.6037 55.1293 10.3421 53.2121H12.15ZM13.5137 59.1569L13.7894 59.9843H11.9049C11.813 59.7238 11.721 59.4481 11.6444 59.1569H13.5137ZM13.7588 58.9731C12.8358 56.083 12.29 53.0858 12.1347 50.0559H14.5555C14.6853 52.652 15.1225 55.2235 15.8579 57.7167V57.8546L18.4319 57.0885C18.7384 58.0844 19.0907 59.065 19.4891 60.015H14.1112C13.9886 59.6932 13.8814 59.3714 13.7741 59.0037L13.7588 58.9731ZM18.723 56.9813L20.7915 56.3837C21.1632 57.6116 21.6135 58.8143 22.1398 59.9843H19.8262C19.4101 59.0139 19.047 58.0216 18.7384 57.0119L18.723 56.9813ZM22.293 60.3674C22.5075 60.827 22.7373 61.2867 22.9671 61.731H14.7241C14.5402 61.256 14.3563 60.8117 14.2031 60.3674H22.293ZM21.0366 56.2611V56.1232L18.6924 56.8127C17.8928 54.0537 17.4803 51.197 17.4667 48.3245H19.9488V47.8649H17.4667C17.4935 45.0124 17.911 42.177 18.7077 39.4379L21.0519 40.1274V39.9895C21.4383 38.6844 21.9196 37.4093 22.4922 36.1744H26.6597L31.5932 41.0927H41.3532C40.767 41.6613 40.2525 42.2993 39.821 42.9926H30.2603L28.7281 41.4604C28.8429 41.2989 28.9069 41.1069 28.9119 40.9088C28.912 40.6554 28.8124 40.4122 28.6347 40.2316C28.4569 40.051 28.2153 39.9476 27.962 39.9436C27.7289 39.9731 27.5145 40.0867 27.3592 40.263C27.2038 40.4393 27.1181 40.6662 27.1181 40.9012C27.1181 41.1361 27.2038 41.3631 27.3592 41.5394C27.5145 41.7156 27.7289 41.8292 27.962 41.8588C28.1629 41.8555 28.357 41.7854 28.5136 41.6596L28.8507 41.9967C28.6253 42.6836 28.4461 43.3849 28.3144 44.0957H24.1469L23.6413 44.586H20.9294C20.8948 44.4415 20.8124 44.313 20.6956 44.2212C20.5788 44.1294 20.4344 44.0798 20.2858 44.0804C20.1303 44.1043 19.9885 44.1832 19.886 44.3026C19.7835 44.422 19.7272 44.5742 19.7272 44.7316C19.7272 44.889 19.7835 45.0411 19.886 45.1606C19.9885 45.28 20.1303 45.3588 20.2858 45.3827C20.4344 45.3834 20.5788 45.3338 20.6956 45.242C20.8124 45.1502 20.8948 45.0216 20.9294 44.8771H23.3655L22.0632 46.2714H19.7649C19.7282 46.0308 19.602 45.813 19.4115 45.6615C19.221 45.51 18.9804 45.4361 18.7377 45.4545C18.495 45.4729 18.2682 45.5823 18.1028 45.7607C17.9373 45.9392 17.8454 46.1736 17.8454 46.417C17.8454 46.6603 17.9373 46.8947 18.1028 47.0732C18.2682 47.2517 18.495 47.3611 18.7377 47.3795C18.9804 47.3979 19.221 47.3239 19.4115 47.1724C19.602 47.021 19.7282 46.8031 19.7649 46.5625H22.0632L24.1929 44.4175H28.2378C28.0179 45.631 27.9051 46.8614 27.9007 48.0947C27.9044 49.3229 28.0172 50.5483 28.2378 51.7566H24.2542L22.0632 49.6422H19.7649C19.7301 49.4047 19.6067 49.1893 19.4195 49.0391C19.2323 48.8889 18.9952 48.8152 18.7559 48.8327C18.5166 48.8501 18.2927 48.9575 18.1293 49.1333C17.9659 49.309 17.8751 49.5401 17.8751 49.7801C17.8751 50.02 17.9659 50.2511 18.1293 50.4269C18.2927 50.6026 18.5166 50.71 18.7559 50.7275C18.9952 50.745 19.2323 50.6712 19.4195 50.521C19.6067 50.3709 19.7301 50.1554 19.7649 49.918H22.0632L23.4268 51.2816H20.9294C20.8948 51.1371 20.8124 51.0085 20.6956 50.9168C20.5788 50.825 20.4344 50.7754 20.2858 50.776C20.1303 50.7999 19.9885 50.8787 19.886 50.9982C19.7835 51.1176 19.7272 51.2698 19.7272 51.4272C19.7272 51.5845 19.7835 51.7367 19.886 51.8561C19.9885 51.9756 20.1303 52.0544 20.2858 52.0783C20.4337 52.0763 20.5768 52.0257 20.6931 51.9343C20.8094 51.843 20.8924 51.7159 20.9294 51.5727H23.5953L24.1009 52.063H28.3144C28.4552 52.7718 28.6342 53.4726 28.8507 54.1621L28.5136 54.4838C28.3521 54.369 28.1601 54.305 27.962 54.3C27.7101 54.3 27.4684 54.4001 27.2903 54.5782C27.1121 54.7563 27.0121 54.998 27.0121 55.2499C27.0121 55.5019 27.1121 55.7435 27.2903 55.9216C27.4684 56.0998 27.7101 56.1999 27.962 56.1999C28.141 56.2028 28.3173 56.1551 28.4704 56.0622C28.6234 55.9693 28.7472 55.835 28.8272 55.6749C28.9073 55.5147 28.9405 55.3352 28.923 55.157C28.9054 54.9788 28.8379 54.8092 28.7281 54.6677L30.2603 53.1355H39.867C40.291 53.8341 40.8062 54.473 41.3991 55.0354H31.6392L26.6597 60.015H22.4768C21.9017 58.7759 21.4203 57.4955 21.0366 56.1845V56.2611ZM28.6974 41.0314C28.6974 41.2061 28.628 41.3737 28.5045 41.4973C28.3809 41.6208 28.2133 41.6902 28.0386 41.6902C27.9426 41.7048 27.8446 41.6985 27.7513 41.6717C27.6579 41.6449 27.5715 41.5983 27.4979 41.535C27.4242 41.4717 27.3651 41.3933 27.3246 41.305C27.2841 41.2168 27.2631 41.1208 27.2631 41.0237C27.2631 40.9266 27.2841 40.8307 27.3246 40.7424C27.3651 40.6542 27.4242 40.5757 27.4979 40.5125C27.5715 40.4492 27.6579 40.4025 27.7513 40.3757C27.8446 40.349 27.9426 40.3426 28.0386 40.3572C28.1969 40.3671 28.3466 40.4323 28.4615 40.5416C28.5764 40.6509 28.6491 40.7972 28.6668 40.9548L28.6974 41.0314ZM20.6842 44.8465C20.6842 44.944 20.6455 45.0375 20.5765 45.1065C20.5075 45.1755 20.414 45.2142 20.3165 45.2142C20.2689 45.2143 20.2218 45.2047 20.178 45.186C20.1342 45.1673 20.0947 45.14 20.0617 45.1056C20.0288 45.0713 20.0032 45.0306 19.9864 44.9861C19.9696 44.9415 19.962 44.894 19.9641 44.8465C19.9641 44.753 20.0012 44.6634 20.0673 44.5973C20.1334 44.5312 20.223 44.4941 20.3165 44.4941C20.3954 44.4956 20.4716 44.5237 20.5327 44.5737C20.5939 44.6237 20.6364 44.6928 20.6536 44.7699L20.6842 44.8465ZM19.5198 46.5012C19.5198 46.676 19.4503 46.8435 19.3268 46.9671C19.2032 47.0907 19.0357 47.1601 18.8609 47.1601C18.6848 47.1601 18.5156 47.0912 18.3896 46.9681C18.2636 46.8449 18.1908 46.6774 18.1868 46.5012C18.1868 46.3224 18.2578 46.151 18.3842 46.0245C18.5107 45.8981 18.6821 45.8271 18.8609 45.8271C19.0192 45.8369 19.1689 45.9022 19.2838 46.0115C19.3987 46.1208 19.4714 46.267 19.4891 46.4246L19.5198 46.5012ZM19.5198 49.8414C19.5198 50.0175 19.4509 50.1867 19.3277 50.3127C19.2046 50.4387 19.0371 50.5115 18.8609 50.5155C18.6821 50.5155 18.5107 50.4445 18.3842 50.3181C18.2578 50.1916 18.1868 50.0202 18.1868 49.8414C18.1908 49.6652 18.2636 49.4977 18.3896 49.3745C18.5156 49.2514 18.6848 49.1825 18.8609 49.1825C19.0178 49.1888 19.1674 49.2509 19.2825 49.3576C19.3977 49.4644 19.471 49.6088 19.4891 49.7648L19.5198 49.8414ZM20.6842 51.4808C20.6842 51.5783 20.6455 51.6718 20.5765 51.7408C20.5075 51.8098 20.414 51.8485 20.3165 51.8485C20.2689 51.8485 20.2218 51.8389 20.178 51.8203C20.1342 51.8016 20.0947 51.7743 20.0617 51.7399C20.0288 51.7056 20.0032 51.6649 19.9864 51.6203C19.9696 51.5758 19.962 51.5283 19.9641 51.4808C19.9641 51.3873 20.0012 51.2977 20.0673 51.2316C20.1334 51.1655 20.223 51.1284 20.3165 51.1284C20.3954 51.1299 20.4716 51.158 20.5327 51.208C20.5939 51.258 20.6364 51.3271 20.6536 51.4042L20.6842 51.4808ZM28.6974 55.3112C28.6975 55.4874 28.6286 55.6566 28.5054 55.7826C28.3823 55.9086 28.2147 55.9814 28.0386 55.9854C27.8598 55.9854 27.6883 55.9143 27.5619 55.7879C27.4355 55.6615 27.3645 55.49 27.3645 55.3112C27.3685 55.1351 27.4413 54.9675 27.5672 54.8444C27.6932 54.7212 27.8624 54.6523 28.0386 54.6524C28.1955 54.6586 28.3451 54.7207 28.4602 54.8275C28.5754 54.9342 28.6487 55.0786 28.6668 55.2346L28.6974 55.3112ZM31.7618 55.4491H36.9712L34.8108 57.6248C34.6854 57.4685 34.5138 57.3559 34.3205 57.303C34.1283 57.3 33.9396 57.3544 33.7785 57.4593C33.6175 57.5642 33.4914 57.7148 33.4164 57.8918C33.3415 58.0688 33.3211 58.2641 33.3578 58.4528C33.3946 58.6414 33.4868 58.8148 33.6228 58.9507C33.7587 59.0866 33.9321 59.1789 34.1207 59.2156C34.3094 59.2524 34.5047 59.232 34.6817 59.157C34.8587 59.0821 35.0093 58.956 35.1142 58.7949C35.2191 58.6339 35.2735 58.4451 35.2704 58.253C35.2654 58.0549 35.2014 57.8629 35.0866 57.7014L37.3848 55.3725H41.7209C42.2743 55.858 42.8808 56.2795 43.5288 56.6289L36.1897 63.9679C33.6861 62.0906 31.6599 59.6498 30.2756 56.8434L31.7618 55.4491ZM34.9027 58.3755C34.9028 58.5517 34.8339 58.7209 34.7107 58.8469C34.5876 58.9729 34.42 59.0457 34.2439 59.0497C34.1479 59.0643 34.0499 59.058 33.9566 59.0312C33.8632 59.0044 33.7768 58.9578 33.7031 58.8945C33.6295 58.8312 33.5704 58.7527 33.5299 58.6645C33.4894 58.5762 33.4684 58.4803 33.4684 58.3832C33.4684 58.2861 33.4894 58.1901 33.5299 58.1019C33.5704 58.0137 33.6295 57.9352 33.7031 57.8719C33.7768 57.8086 33.8632 57.762 33.9566 57.7352C34.0499 57.7084 34.1479 57.7021 34.2439 57.7167C34.4061 57.7156 34.5631 57.7744 34.6846 57.8818C34.8062 57.9893 34.8839 58.1378 34.9027 58.2989V58.3755ZM36.2051 64.5042C36.8431 64.9673 37.5083 65.392 38.1969 65.7759L34.7035 69.2846V73.2069C33.9987 72.8392 33.3399 72.4408 32.6964 72.0272V67.8597L36.2051 64.5042ZM38.4574 65.9291C39.844 66.6861 41.3147 67.2775 42.8394 67.6911V70.02C40.6844 69.5019 38.6188 68.6653 36.7107 67.5379L38.4574 65.9291ZM34.7648 73.59C35.2092 73.8198 35.6535 74.0496 36.1285 74.2641L35.2704 76.1334C34.3895 75.7348 33.5303 75.2898 32.6964 74.8004V72.211C33.3552 72.6247 34.06 73.0384 34.7648 73.4214V73.59ZM35.1479 76.3938L33.9987 78.7534H34.1213C34.9027 79.1058 35.6535 79.4429 36.4962 79.734V82.1395C35.2009 81.7029 33.9322 81.1913 32.6964 80.6073V74.9689C33.5085 75.4286 34.3205 75.8576 35.1479 76.2253V76.3938ZM34.3205 78.6155L35.3471 76.3479C37.9446 77.5241 40.6931 78.3337 43.5135 78.7534L43.1611 81.2355C40.9364 80.8996 38.7501 80.3453 36.6341 79.5807C35.8527 79.2743 35.1326 78.9679 34.3205 78.6155ZM39.2388 75.3673C39.2388 75.44 39.2172 75.5111 39.1768 75.5716C39.1364 75.632 39.079 75.6792 39.0118 75.707C38.9446 75.7348 38.8706 75.7421 38.7993 75.7279C38.728 75.7137 38.6625 75.6787 38.611 75.6273C38.5596 75.5759 38.5246 75.5104 38.5104 75.439C38.4962 75.3677 38.5035 75.2938 38.5313 75.2266C38.5591 75.1594 38.6063 75.1019 38.6667 75.0615C38.7272 75.0211 38.7983 74.9996 38.871 74.9996C38.9242 74.9906 38.9787 74.9934 39.0306 75.0078C39.0826 75.0222 39.1307 75.0479 39.1717 75.0829C39.2126 75.118 39.2453 75.1617 39.2675 75.2108C39.2897 75.26 39.3008 75.3134 39.3 75.3673H39.2388ZM42.6861 74.2948C42.6861 74.3882 42.649 74.4779 42.5829 74.544C42.5168 74.61 42.4272 74.6472 42.3337 74.6472C42.2862 74.6492 42.2387 74.6416 42.1942 74.6249C42.1496 74.6081 42.109 74.5825 42.0746 74.5495C42.0402 74.5166 42.0129 74.477 41.9942 74.4333C41.9756 74.3895 41.966 74.3424 41.966 74.2948C41.9549 74.2413 41.9559 74.186 41.9688 74.1329C41.9818 74.0799 42.0064 74.0303 42.0409 73.988C42.0754 73.9456 42.1189 73.9115 42.1682 73.888C42.2175 73.8645 42.2715 73.8524 42.3261 73.8524C42.3807 73.8524 42.4346 73.8645 42.484 73.888C42.5333 73.9115 42.5768 73.9456 42.6113 73.988C42.6458 74.0303 42.6704 74.0799 42.6833 74.1329C42.6963 74.186 42.6972 74.2413 42.6861 74.2948ZM45.0457 70.449V68.0282C46.061 68.1696 47.0849 68.2413 48.11 68.2427C49.1352 68.2425 50.1591 68.1709 51.1744 68.0282V70.4643L50.1325 70.5716C49.489 70.5716 48.8148 70.6635 48.156 70.6635C47.4971 70.6635 46.823 70.6635 46.1795 70.5716L45.0457 70.449ZM42.6095 76.7769C42.6948 76.7943 42.7716 76.8401 42.8273 76.907C42.883 76.9738 42.9142 77.0576 42.916 77.1446C42.916 77.2421 42.8772 77.3357 42.8083 77.4046C42.7393 77.4736 42.6458 77.5123 42.5482 77.5123C42.4507 77.5123 42.3572 77.4736 42.2882 77.4046C42.2193 77.3357 42.1805 77.2421 42.1805 77.1446C42.1822 77.0576 42.2135 76.9738 42.2692 76.907C42.3249 76.8401 42.4017 76.7943 42.487 76.7769H42.6095ZM53.5492 76.7769H53.6565C53.7417 76.7943 53.8185 76.8401 53.8742 76.907C53.9299 76.9738 53.9612 77.0576 53.9629 77.1446C53.9629 77.2381 53.9258 77.3277 53.8597 77.3938C53.7936 77.4599 53.704 77.497 53.6105 77.497C53.563 77.4991 53.5155 77.4915 53.4709 77.4747C53.4264 77.4579 53.3857 77.4323 53.3514 77.3994C53.317 77.3664 53.2897 77.3269 53.271 77.2831C53.2523 77.2393 53.2427 77.1922 53.2428 77.1446C53.2458 77.0532 53.2814 76.9658 53.3433 76.8983C53.4051 76.8309 53.489 76.7878 53.5799 76.7769H53.5492ZM53.4266 74.2948C53.4266 74.2465 53.4362 74.1987 53.4546 74.154C53.4731 74.1094 53.5002 74.0689 53.5343 74.0348C53.5685 74.0006 53.609 73.9735 53.6536 73.955C53.6983 73.9366 53.7461 73.927 53.7944 73.927C53.8426 73.927 53.8905 73.9366 53.9351 73.955C53.9797 73.9735 54.0202 74.0006 54.0544 74.0348C54.0885 74.0689 54.1156 74.1094 54.1341 74.154C54.1526 74.1987 54.1621 74.2465 54.1621 74.2948C54.1621 74.3923 54.1233 74.4858 54.0544 74.5548C53.9854 74.6237 53.8919 74.6625 53.7944 74.6625C53.6968 74.6625 53.6033 74.6237 53.5343 74.5548C53.4654 74.4858 53.4266 74.3923 53.4266 74.2948ZM56.8893 75.3673C56.8893 75.2698 56.9281 75.1762 56.997 75.1073C57.066 75.0383 57.1595 74.9996 57.2571 74.9996C57.3295 75.0206 57.3937 75.0634 57.441 75.1222C57.4883 75.181 57.5163 75.2529 57.5213 75.3282C57.5264 75.4035 57.5081 75.4785 57.4691 75.543C57.43 75.6076 57.372 75.6586 57.303 75.689C57.2104 75.6936 57.1194 75.663 57.0484 75.6033C56.9773 75.5437 56.9315 75.4593 56.92 75.3673H56.8893ZM53.3807 70.02V67.5379C54.9035 67.1188 56.3736 66.5277 57.7627 65.7759L59.5247 67.5379C57.6118 68.6667 55.5409 69.5033 53.3807 70.02ZM57.7167 65.4235C56.2692 66.2261 54.7243 66.8389 53.1202 67.2468C52.4614 67.4153 51.8179 67.5532 51.1744 67.6605C50.1629 67.8556 49.1389 67.9785 48.11 68.0282C47.0822 67.9949 46.058 67.8873 45.0457 67.7064C44.4022 67.5992 43.7433 67.4613 43.0998 67.2928C41.5221 66.8787 40.0033 66.266 38.5799 65.4695C37.8552 65.0742 37.1589 64.6288 36.4962 64.1365L43.8659 56.7668C45.2096 57.4306 46.6879 57.7766 48.1866 57.778C49.6862 57.7839 51.1661 57.4375 52.5073 56.7668L59.8771 64.1365C59.1873 64.6282 58.4656 65.0735 57.7167 65.4695V65.4235ZM52.7065 56.6289C53.3546 56.2795 53.9611 55.858 54.5145 55.3725H58.8352L61.2101 57.7473C61.0887 57.9054 61.0239 58.0997 61.0262 58.2989C61.0242 58.425 61.0472 58.5501 61.0941 58.6672C61.1409 58.7842 61.2105 58.8907 61.299 58.9806C61.3874 59.0704 61.4928 59.1418 61.609 59.1904C61.7253 59.2391 61.8501 59.2642 61.9761 59.2642C62.2093 59.2346 62.4236 59.1211 62.579 58.9448C62.7343 58.7685 62.82 58.5416 62.82 58.3066C62.82 58.0716 62.7343 57.8447 62.579 57.6684C62.4236 57.4921 62.2093 57.3785 61.9761 57.349C61.77 57.3488 61.57 57.4191 61.4092 57.5482L59.2336 55.3725H64.4583L65.9904 56.9047C64.608 59.7079 62.5877 62.1481 60.0916 64.0292L52.7065 56.6289ZM61.3173 58.2989C61.3213 58.1228 61.3941 57.9552 61.5201 57.8321C61.6461 57.709 61.8153 57.6401 61.9915 57.6401C62.1509 57.6643 62.2963 57.7449 62.4014 57.8672C62.5065 57.9895 62.5643 58.1454 62.5643 58.3066C62.5643 58.4678 62.5065 58.6237 62.4014 58.746C62.2963 58.8683 62.1509 58.9488 61.9915 58.9731C61.9017 58.9751 61.8123 58.9592 61.7288 58.9262C61.6452 58.8933 61.5691 58.8439 61.5048 58.7811C61.4406 58.7183 61.3896 58.6433 61.3547 58.5605C61.3199 58.4777 61.302 58.3888 61.302 58.2989H61.3173ZM73.9271 60.3674H82.0016C81.8484 60.8117 81.6798 61.256 81.4806 61.731H73.2376C73.4827 61.21 73.7125 60.7504 73.9271 60.3674ZM76.7003 60.0916C77.1023 59.1364 77.4501 58.1594 77.7422 57.1651L80.3162 57.9312V57.7933C81.0442 55.2984 81.4812 52.7278 81.6185 50.1325H84.024C83.8618 53.1616 83.3161 56.1579 82.3999 59.0497C82.2927 59.4174 82.1701 59.7392 82.0629 60.0609L76.7003 60.0916ZM82.6911 59.2642H84.5756C84.4837 59.5553 84.3918 59.8311 84.3152 60.0916H82.4153C82.5072 59.7851 82.5991 59.4838 82.6911 59.1876V59.2642ZM85.9086 53.0436H84.0853C84.0853 52.8597 84.0853 52.6605 84.1619 52.4767H85.9699C85.9546 52.5993 85.9239 52.7831 85.9086 52.967V53.0436ZM86.0005 52.2009H84.1926C84.2692 51.5267 84.3152 50.8526 84.3611 50.1631H86.1538C86.1231 50.776 86.0771 51.4501 86.0005 52.1243V52.2009ZM84.3764 49.8873C84.3764 49.3051 84.3764 48.7229 84.3764 48.1713C84.3764 47.6197 84.3764 47.0375 84.3764 46.4553H86.1691C86.1691 47.0068 86.1691 47.5738 86.1691 48.1713C86.1691 48.7688 86.1691 49.3357 86.1691 49.8873H84.3764ZM87.9464 53.9782L86.9198 52.967H86.2457C86.2457 52.7831 86.2457 52.5993 86.2457 52.4001H86.9965L87.977 53.3807L87.9464 53.9782ZM88.0843 53.0283L87.1803 52.1243H86.3376C86.3376 51.4501 86.4602 50.776 86.4908 50.0865H87.5174L88.2835 50.8526C88.1915 51.588 88.1149 52.3081 88.0383 53.0283H88.0843ZM88.3294 48.11C88.3294 48.9067 88.3294 49.6422 88.3294 50.4849L87.6706 49.826H86.4142C86.4142 49.2745 86.4142 48.6922 86.4142 48.11C86.4142 47.5278 86.4142 46.9456 86.4142 46.394H87.548L88.2069 45.7198C88.2988 46.5778 88.3294 47.298 88.3294 48.11ZM88.2375 45.3521L87.4714 46.1029H86.4142C86.4142 45.4287 86.3223 44.7546 86.261 44.0804H87.1037L88.0077 43.1764C88.1149 43.8812 88.1915 44.6013 88.2375 45.3368V45.3521ZM87.9464 42.8087L86.9658 43.774H86.261C86.261 43.5901 86.261 43.4063 86.261 43.2224H86.9352L87.9617 42.1958L87.9464 42.8087ZM87.8085 41.8588L86.7207 42.9466H86.1078C85.8513 41.0298 85.4518 39.1348 84.9127 37.2776H86.8126C87.2466 38.7836 87.5945 40.3132 87.8545 41.8588H87.8085ZM86.736 37.0018H84.8821C84.8054 36.7107 84.7135 36.4349 84.6369 36.1744H86.5521C86.6287 36.4502 86.7053 36.726 86.7819 37.0018H86.736ZM86.4142 35.8527H82.2774C82.1242 35.4083 81.9556 34.964 81.7564 34.5044H85.9546C86.1538 34.9793 86.307 35.439 86.4142 35.8527ZM85.878 34.3205H73.0844L72.8699 33.9375H85.7401L85.878 34.3205ZM70.5563 20.01L71.1079 20.4544L67.5226 24.0396L66.971 23.5953L70.5563 20.01ZM70.5563 19.627C68.9275 18.3513 67.1953 17.2135 65.3776 16.2256V14.1265C67.6666 15.2819 69.8285 16.6735 71.828 18.2787L70.5563 19.627ZM67.3234 24.2235L65.7912 25.7557L65.2243 25.3113L66.7565 23.7792L67.3234 24.2235ZM67.5532 24.392L68.0129 24.7904L66.6493 26.3226L66.067 25.8323L67.5532 24.392ZM67.7524 24.1929L72.8239 19.1367C73.8663 20.0259 74.8586 20.9722 75.7963 21.9712L72.732 25.0356C71.9161 24.1656 71.057 23.3372 70.1579 22.5534L70.0507 22.4615L68.2427 24.5453L67.7524 24.1929ZM77.8341 27.7322L78.1405 28.1918H75.306L74.9536 27.7322H77.8341ZM74.7697 27.4411C74.2028 26.6903 73.5747 25.9089 72.9158 25.2347L74.5246 23.5953C75.6338 24.7994 76.6577 26.0793 77.5889 27.4257L74.7697 27.4411ZM78.355 28.4829C78.6155 28.8813 78.876 29.295 79.1211 29.7087H76.3479C76.0568 29.2643 75.781 28.866 75.5052 28.4829H78.355ZM79.2896 30.0151C79.9672 31.1787 80.576 32.3809 81.1129 33.6157H75.4745C75.0762 32.8496 74.6318 32.0835 74.1722 31.3941L76.3019 30.0151H79.2896ZM79.6114 30.0151H80.4081L81.2202 29.2184C82.0232 30.6267 82.7346 32.0852 83.3499 33.5851H81.404C80.8671 32.3503 80.2583 31.148 79.5808 29.9845L79.6114 30.0151ZM80.2856 29.724H79.4429C79.1977 29.3103 78.9372 28.8966 78.6768 28.4983H79.8872L80.4541 27.9314L81.067 28.9426L80.2856 29.724ZM79.7646 28.1918H78.4929L78.1865 27.7322H79.0139L79.8106 26.9354C79.9791 27.1653 80.1323 27.4104 80.2856 27.6556L79.7646 28.1918ZM78.8913 27.4411H77.9873C76.9963 26.0216 75.9111 24.6703 74.7391 23.3961L75.9955 22.0632C77.3252 23.4972 78.5394 25.0342 79.6267 26.6597L78.8913 27.4411ZM70.0507 22.8446C70.9125 23.5887 71.731 24.3816 72.5021 25.2194L70.7555 26.9661C70.0212 26.173 69.2438 25.4211 68.4266 24.7138L70.0507 22.8446ZM72.6247 25.4339C73.2835 26.154 73.9117 26.9661 74.494 27.6709C74.6931 27.916 74.877 28.1612 75.0609 28.4216C75.2447 28.6821 75.6737 29.3103 76.0108 29.8006L73.9577 31.1183C73.0407 29.7277 72.0161 28.4111 70.8934 27.1806L72.6247 25.4339ZM75.0915 33.5851H72.7166C72.5175 33.2633 72.3489 32.9569 72.1497 32.6658L73.9424 31.5166C74.3714 32.1908 74.7697 32.8803 75.1528 33.5851H75.0915ZM84.07 30.199C84.1619 30.3828 84.2692 30.5667 84.3458 30.7505C84.3175 30.8028 84.2754 30.8461 84.224 30.8759C84.1726 30.9056 84.114 30.9206 84.0547 30.9191C83.9572 30.9191 83.8636 30.8803 83.7947 30.8114C83.7257 30.7424 83.687 30.6489 83.687 30.5514C83.687 30.4538 83.7257 30.3603 83.7947 30.2913C83.8636 30.2224 83.9572 30.1836 84.0547 30.1836L84.07 30.199ZM82.6757 27.6249C83.1201 28.3757 83.5491 29.1571 83.9321 29.9232C83.7847 29.9487 83.6512 30.026 83.5557 30.1412C83.4602 30.2563 83.409 30.4018 83.4112 30.5514C83.4112 30.722 83.479 30.8857 83.5997 31.0064C83.7203 31.1271 83.884 31.1949 84.0547 31.1949C84.2139 31.1951 84.3672 31.1348 84.4837 31.0263C84.8667 31.869 85.2345 32.7117 85.5715 33.5851H83.6563C83.0136 32.0023 82.261 30.4664 81.404 28.9886L82.6757 27.6249ZM82.5378 27.3798L81.1895 28.7128C80.9904 28.3757 80.7912 28.0386 80.5767 27.7015L81.9097 26.3685L82.5378 27.3798ZM81.8177 26.1234L80.5001 27.4564L79.9944 26.6597L81.3274 25.342L81.8177 26.1234ZM81.1589 25.1275L79.8412 26.4452C78.7403 24.8254 77.5215 23.2891 76.1947 21.8486L77.497 20.5616C78.8229 21.996 80.0466 23.5217 81.1589 25.1275ZM77.2978 20.3931L75.9955 21.6954C75.054 20.6954 74.0619 19.7442 73.0231 18.8456L74.3254 17.5586C75.3686 18.4577 76.361 19.4143 77.2978 20.4237V20.3931ZM74.1569 17.4666L71.3837 20.2399C71.2151 20.0867 71.0313 19.9488 70.8321 19.7955L73.6206 17.007L74.1569 17.4666ZM69.0854 13.7741L69.637 14.1112C69.6293 14.1993 69.5888 14.2812 69.5235 14.3408C69.4583 14.4004 69.373 14.4333 69.2846 14.433C69.237 14.435 69.1896 14.4274 69.145 14.4107C69.1005 14.3939 69.0598 14.3682 69.0254 14.3353C68.9911 14.3024 68.9637 14.2628 68.9451 14.219C68.9264 14.1753 68.9168 14.1281 68.9169 14.0806C68.9173 14.0195 68.933 13.9595 68.9624 13.906C68.9918 13.8525 69.0341 13.8072 69.0854 13.7741ZM68.8403 13.6209C68.7766 13.6792 68.7259 13.7502 68.6916 13.8294C68.6572 13.9087 68.64 13.9942 68.6411 14.0806C68.6404 14.2343 68.6947 14.3832 68.7943 14.5003C68.8938 14.6174 69.032 14.695 69.1838 14.7191C69.3356 14.7432 69.4911 14.7121 69.622 14.6315C69.7529 14.5509 69.8506 14.4261 69.8975 14.2797C71.0905 15.0444 72.2413 15.8729 73.3448 16.7618L72.0272 18.0642C69.9657 16.4157 67.737 14.9881 65.3776 13.8048V12.6097L65.9598 12.0428C66.9404 12.5331 67.9056 13.054 68.8403 13.6209ZM63.7994 11.0469C64.4429 11.3073 65.0711 11.5984 65.684 11.9049L65.1018 12.4871V13.6515L63.7994 13.0387V11.0469ZM63.7994 13.3604L65.1018 13.9733V15.9345L63.7994 15.2756V13.3604ZM63.7994 15.6587C64.2744 15.8885 64.734 16.1183 65.1784 16.3635C66.9942 17.3407 68.7218 18.4737 70.3418 19.7496L66.7412 23.3655C65.8018 22.6473 64.8194 21.9872 63.7994 21.389V15.6587ZM63.7994 21.7874C64.733 22.3365 65.6334 22.9402 66.496 23.5953L64.9639 25.1275C64.5349 24.8057 64.1212 24.5146 63.7075 24.2388L63.7994 21.7874ZM63.7994 24.5606L64.9792 25.4033C65.255 25.6025 65.5155 25.817 65.7606 26.0161C66.0057 26.2153 66.2969 26.4452 66.5726 26.6903L66.6799 26.7822L68.2121 24.9896C69.0088 25.6944 69.7442 26.4452 70.5256 27.2266L64.9639 32.7883L65.1631 32.9875L70.8168 27.3338C71.9444 28.5438 72.9694 29.8455 73.8811 31.2255L71.8739 32.5279L71.9506 32.6504C72.1651 33.0028 72.3949 33.3552 72.6094 33.7536C72.8239 34.152 72.8699 34.1826 72.9924 34.4124C73.2529 34.8874 73.498 35.3624 73.7125 35.8373H69.3765L66.1436 39.0855C64.7465 36.2874 62.7226 33.8493 60.2295 31.961L63.7994 28.4063V24.5606ZM63.5083 10.9856V15.2756C62.2766 14.6942 61.0131 14.1826 59.7239 13.7435V10.1276L60.1529 9.69855C61.302 10.0663 62.4205 10.4646 63.5083 10.9243V10.9856ZM55.4185 8.5341C56.9142 8.8047 58.3927 9.16282 59.8464 9.60662L59.4327 10.0203V11.338C58.1125 10.9377 56.7727 10.6053 55.4185 10.3421V8.5341ZM55.4185 10.6945C56.7745 10.9556 58.1148 11.2932 59.4327 11.7057V13.5903C58.1159 13.1574 56.7757 12.7993 55.4185 12.5177V10.6945ZM54.1468 8.27364L55.1274 8.42685V12.4105L54.1468 12.242V8.27364ZM54.1468 12.5331L55.2499 12.7322C56.6664 13.0165 58.0634 13.3901 59.4327 13.8507V16.2409C57.7125 15.6264 55.9445 15.155 54.1468 14.8313V12.5331ZM50.6534 7.93656C51.7259 7.93656 52.8138 8.1051 53.871 8.25831V10.1276C52.7984 9.97434 51.7259 9.85177 50.6534 9.79048V7.93656ZM49.4124 7.93656H50.3623V9.8058H49.4124V7.93656ZM49.4124 10.051C50.9052 10.1038 52.3939 10.2419 53.871 10.4646V12.242C52.3951 12.0066 50.906 11.8633 49.4124 11.8129V10.051ZM47.0835 7.87527H49.1366V11.7976H47.0835V7.87527ZM45.8577 7.87527H46.7924V9.8058H45.8577V7.87527ZM42.3491 8.27364C43.3705 8.12042 44.443 8.01317 45.5666 7.95188V9.8058C44.4941 9.8058 43.4063 9.98966 42.3491 10.1429V8.27364ZM42.3491 10.4187C43.821 10.1959 45.3046 10.0578 46.7924 10.005V11.8129C45.3038 11.864 43.8199 12.0073 42.3491 12.242V10.4187ZM42.3491 12.5331C46.1652 11.9201 50.0548 11.9201 53.871 12.5331V14.816L52.9057 14.6628H52.7065L52.3694 17.4666C49.5431 17.0784 46.6769 17.0784 43.8506 17.4666L43.5135 14.6475H43.3756L42.4104 14.8007L42.3491 12.5331ZM41.0774 8.47282L42.058 8.3196V12.2879L41.0774 12.4565V8.47282ZM42.058 12.579V14.8773C40.2607 15.2032 38.4929 15.6746 36.772 16.2869V13.8967C38.1458 13.434 39.5481 13.0604 40.9701 12.7782L42.058 12.579ZM36.772 13.5903V11.7057C38.0946 11.2914 39.44 10.9538 40.8016 10.6945V12.5177C39.4397 12.8011 38.0945 13.1591 36.772 13.5903ZM40.8016 8.5341V10.4033C39.443 10.6446 38.098 10.9566 36.772 11.338V9.95902L36.3736 9.54534C37.8282 9.12048 39.3068 8.7828 40.8016 8.5341ZM32.6964 10.9243C33.7996 10.4646 34.918 10.0663 36.0672 9.69855L36.4962 10.1276V13.6822C35.2009 14.1188 33.9322 14.6304 32.6964 15.2144V10.9243ZM32.6964 15.5208C33.9322 14.9368 35.2009 14.4252 36.4962 13.9886V16.3941C35.6841 16.6852 34.964 17.007 34.1213 17.3594H33.9987L35.1479 19.8875C34.3358 20.2705 33.5085 20.6995 32.6964 21.1592V15.5208ZM32.6964 21.5422C33.5391 21.0519 34.4124 20.6076 35.2704 20.2092L36.1285 22.0632L34.7648 22.7373C34.06 23.1203 33.3552 23.5187 32.6964 23.9477V21.5422ZM32.6964 24.3154C33.3399 23.9018 33.9987 23.5034 34.7035 23.1357V27.058L38.1969 30.5514C37.508 30.9404 36.8429 31.3702 36.2051 31.8384L32.6964 28.3297V24.3154ZM30.5207 11.9049C31.1489 11.5984 31.7771 11.3073 32.4206 11.0469V13.0387L31.1183 13.6515V12.4871L30.5207 11.9049ZM31.0417 16.3635C31.486 16.1183 31.9456 15.8885 32.4206 15.6587V21.389C31.3934 21.9835 30.4057 22.6437 29.4635 23.3655L25.8629 19.7496C27.4907 18.477 29.2231 17.3442 31.0417 16.3635ZM24.3767 18.2787C26.3762 16.6735 28.5381 15.2819 30.8272 14.1265V16.149C29.0143 17.1371 27.2872 18.2748 25.6638 19.5504L24.3767 18.2787ZM25.6484 19.9334L29.2337 23.5953L28.6821 24.0243L25.1275 20.3778L25.6484 19.9334ZM23.3961 19.0907L28.4523 24.1469C28.3114 24.2827 28.163 24.4105 28.008 24.5299L26.2 22.4462L26.0928 22.5381C25.2199 23.3238 24.3864 24.1522 23.5953 25.0202L20.531 21.9559C21.4371 20.9532 22.3934 19.9969 23.3961 19.0907ZM20.2092 22.1551L21.4809 23.4268C20.309 24.7009 19.2238 26.0523 18.2327 27.4717H17.3441L16.578 26.7209C17.6727 25.0815 18.8863 23.5247 20.2092 22.0632V22.1551ZM16.4248 26.9661L17.2215 27.7628H18.0489L17.7271 28.2225H16.4707L15.9345 27.6556C16.0877 27.4104 16.2562 27.1653 16.4248 26.9354V26.9661ZM14.8926 25.4339L16.2103 26.7516L15.7353 27.487L14.4023 26.1234L14.8926 25.4339ZM14.2491 26.3992L15.5821 27.7322C15.3676 28.0693 15.1531 28.4063 14.9539 28.7434L13.6209 27.4104C13.8201 27.0427 14.0346 26.6597 14.2491 26.3685V26.3992ZM12.0734 30.2296C12.1709 30.2296 12.2645 30.2684 12.3334 30.3373C12.4024 30.4063 12.4411 30.4998 12.4411 30.5973C12.4411 30.6949 12.4024 30.7884 12.3334 30.8573C12.2645 30.9263 12.1709 30.965 12.0734 30.965C12.0121 30.9661 11.9516 30.951 11.8978 30.9215C11.8441 30.8919 11.799 30.8488 11.767 30.7965L12.0734 30.2296ZM11.6751 31.057C11.7292 31.1176 11.7952 31.1666 11.869 31.2008C11.9428 31.2351 12.0228 31.2539 12.1041 31.2562C12.1886 31.2562 12.2722 31.2395 12.3503 31.2072C12.4284 31.1748 12.4993 31.1274 12.5591 31.0677C12.6188 31.0079 12.6662 30.937 12.6986 30.8589C12.7309 30.7808 12.7476 30.6972 12.7476 30.6126C12.7492 30.4608 12.6958 30.3135 12.5972 30.198C12.4986 30.0825 12.3615 30.0067 12.2113 29.9845C12.6097 29.2031 13.0234 28.4523 13.4677 27.6862L14.816 29.0345C13.9601 30.5153 13.2026 32.0508 12.5484 33.631H10.5872C10.9243 32.7883 11.338 31.869 11.6751 31.0263V31.057ZM10.48 33.8608H23.3349C23.2726 33.9935 23.2009 34.1215 23.1204 34.2439H10.3267L10.48 33.8608ZM10.2348 34.535H14.4023C14.2185 35.01 14.0346 35.4543 13.8814 35.8833H9.80581C9.91306 35.439 10.0663 34.9793 10.2348 34.535ZM9.68324 36.1744H11.5984C11.5065 36.4349 11.4299 36.7107 11.338 37.0018H9.43809C9.5147 36.726 9.59131 36.4502 9.68324 36.1744ZM9.36148 37.2776H11.338C10.7938 39.1345 10.3892 41.0294 10.1276 42.9466H9.45341L8.36557 41.8588C8.60308 40.3127 8.93568 38.7827 9.36148 37.2776ZM8.27364 42.1958L9.28487 43.2224H9.97435C9.97435 43.4063 9.97435 43.5901 9.97435 43.774H9.20826L8.27364 42.8087V42.1958ZM8.13575 43.1611L9.03973 44.0651H9.88242C9.88242 44.7392 9.75985 45.4134 9.71388 46.0875H8.73329L7.98253 45.3368C8.02849 44.6013 8.08978 43.8812 8.18171 43.1611H8.13575ZM7.87528 48.11C7.87528 47.3133 7.87528 46.5778 7.87528 45.7198L8.54943 46.394H9.80581C9.80581 46.9456 9.80581 47.5278 9.80581 48.11C9.80581 48.6922 9.80581 49.2745 9.80581 49.826H8.62604L7.95189 50.4849C7.90592 49.6422 7.87528 48.8914 7.87528 48.11ZM7.98253 50.8679L8.73329 50.1018H9.80581C9.80581 50.7913 9.89774 51.4655 9.97435 52.1396H9.08569L8.18171 53.0436C8.08978 52.3082 8.02849 51.588 7.98253 50.8526V50.8679ZM8.27364 53.3807L9.25423 52.4001H9.95903C9.95903 52.5993 9.95903 52.7831 9.95903 52.967H9.33084L8.27364 53.9782V53.3807ZM8.41154 54.3306L9.49938 53.2428H10.0969C10.3686 55.1608 10.7834 57.0557 11.338 58.9118H9.36148C8.93568 57.4067 8.60308 55.8767 8.36557 54.3306H8.41154ZM9.48405 59.1876H11.338C11.4299 59.4787 11.5218 59.7545 11.5984 60.015H9.68324C9.59131 59.7392 9.5147 59.4634 9.43809 59.1876H9.48405ZM9.80581 60.3674H13.8967C14.0652 60.8117 14.2338 61.2713 14.4176 61.731H10.2348C10.0663 61.21 9.91306 60.7504 9.80581 60.3674ZM10.3267 61.8995H23.1204C23.2009 62.0219 23.2726 62.1499 23.3349 62.2826H10.48L10.3267 61.8995ZM25.6484 76.21L25.1275 75.8116L28.7128 72.211L29.2643 72.6553L25.6484 76.21ZM25.6484 76.593C27.2719 77.8686 28.999 79.0064 30.8118 79.9944V82.0169C28.5258 80.8563 26.3644 79.465 24.3614 77.8647L25.6484 76.593ZM28.866 71.9965L30.3982 70.4643L30.9651 70.9087L29.4329 72.4408L28.866 71.9965ZM28.6515 71.8127C28.4863 71.6882 28.3278 71.5552 28.1765 71.4143L29.5401 69.8821L30.1224 70.3571L28.6515 71.8127ZM28.437 72.0118L23.3808 77.0833C22.337 76.1903 21.3398 75.2442 20.3931 74.2488L23.4574 71.1845C24.2694 72.0583 25.1287 72.8869 26.0315 73.6666L26.1387 73.7585L27.9467 71.6901L28.437 72.0118ZM18.386 68.4572L18.0795 67.9976H20.914C21.0213 68.1661 21.1439 68.3193 21.2511 68.4572H18.386ZM21.4503 68.7483C22.0325 69.4991 22.6607 70.2805 23.3042 70.9546L21.6954 72.6247C20.5902 71.4172 19.5665 70.1376 18.6311 68.7943L21.4503 68.7483ZM17.8803 67.7064C17.6045 67.3081 17.3594 66.8944 17.1143 66.4807H19.8568C20.1479 66.925 20.4084 67.3234 20.6842 67.7064H17.8803ZM16.9457 66.1743C16.2662 65.0146 15.6523 63.8176 15.1071 62.589H20.7302C21.1285 63.3398 21.5575 64.1212 22.0172 64.8106L19.8875 66.1743H16.9457ZM16.6086 66.1743H15.8119L14.9999 66.9863C14.19 65.5764 13.4784 64.1122 12.8701 62.6043H14.816C15.3508 63.8324 15.9544 65.0294 16.624 66.1896L16.6086 66.1743ZM15.9345 66.496H16.7772C17.0223 66.9097 17.2675 67.3234 17.5279 67.7218H16.3328L15.7659 68.2887C15.5514 67.9516 15.3523 67.6145 15.1531 67.2774L15.9345 66.496ZM16.4554 68.0282H17.7118L18.0336 68.4878H17.2062L16.4095 69.2846L15.9345 68.5185L16.4554 68.0282ZM17.3288 68.779H18.2174C19.2048 70.1963 20.2901 71.5428 21.4656 72.8086L20.1939 74.0803C18.873 72.6387 17.6593 71.1025 16.5627 69.4838L17.3288 68.779ZM26.154 73.3755C25.2958 72.6274 24.4775 71.8347 23.7026 71.0006L25.4492 69.2693C26.1836 70.0574 26.9611 70.8042 27.7781 71.5062L26.154 73.3755ZM23.5953 70.7401C22.9212 70.02 22.293 69.208 21.7108 68.5185L21.1592 67.7677C20.8527 67.3387 20.531 66.8791 20.2092 66.3888L22.2623 65.0558C23.1754 66.454 24.2002 67.776 25.3267 69.0088L23.5953 70.7401ZM21.1285 62.6043H23.5647C23.7485 62.9312 23.9324 63.2376 24.1163 63.5236L22.3389 64.6728C21.8487 63.9986 21.435 63.3091 21.0672 62.6043H21.1285ZM12.0734 65.9904L11.7976 65.4235C11.8333 65.3759 11.8796 65.3373 11.9328 65.3107C11.9859 65.2841 12.0446 65.2703 12.1041 65.2703C12.1517 65.2703 12.1988 65.2798 12.2426 65.2985C12.2863 65.3172 12.3259 65.3445 12.3588 65.3789C12.3918 65.4132 12.4174 65.4539 12.4342 65.4984C12.4509 65.543 12.4585 65.5905 12.4565 65.638C12.4565 65.6843 12.4473 65.7301 12.4296 65.7729C12.4119 65.8156 12.386 65.8545 12.3532 65.8872C12.3205 65.9199 12.2817 65.9459 12.2389 65.9636C12.1962 65.9813 12.1503 65.9904 12.1041 65.9904H12.0734ZM12.2113 66.2662C12.3602 66.241 12.4955 66.1643 12.5935 66.0495C12.6916 65.9347 12.7461 65.789 12.7476 65.638C12.7517 65.551 12.7381 65.464 12.7077 65.3823C12.6772 65.3007 12.6305 65.2261 12.5703 65.163C12.5101 65.1 12.4378 65.0498 12.3576 65.0156C12.2775 64.9814 12.1912 64.9638 12.1041 64.9639C11.9457 64.9679 11.7938 65.0276 11.6751 65.1324C11.338 64.3204 10.9243 63.4317 10.5872 62.6043H12.5484C13.2026 64.1846 13.9601 65.7201 14.816 67.2008L13.4677 68.5338C13.0234 67.8137 12.6097 67.0476 12.2113 66.2662ZM13.6209 68.8096L14.9539 67.4766C15.1531 67.8137 15.3676 68.1508 15.5821 68.4878L14.2491 69.8055C14.0346 69.5604 13.8201 69.1467 13.6209 68.8096ZM14.4023 70.0507L15.7353 68.733L16.2103 69.4684L14.8926 70.7861L14.4023 70.0507ZM15.0611 71.0159L16.3788 69.6983C17.471 71.3202 18.6849 72.8568 20.0101 74.2948L18.723 75.5818C17.3879 74.1825 16.1636 72.6816 15.0611 71.0925V71.0159ZM18.9069 75.7656L20.2092 74.4633C21.177 75.4646 22.2 76.4109 23.2736 77.2978L21.9712 78.6002C20.9013 77.7092 19.8784 76.763 18.9069 75.7656ZM22.0632 78.7534L24.8517 75.9801L25.388 76.4245L22.6147 79.213L22.0632 78.7534ZM27.0733 82.3846L26.5218 82.0475C26.5295 81.9554 26.5716 81.8696 26.6397 81.8071C26.7079 81.7446 26.797 81.7101 26.8895 81.7105C26.9371 81.7104 26.9842 81.72 27.028 81.7387C27.0718 81.7573 27.1113 81.7847 27.1442 81.819C27.1772 81.8534 27.2028 81.8941 27.2196 81.9386C27.2364 81.9832 27.244 82.0306 27.2419 82.0782C27.2535 82.1402 27.2483 82.2042 27.2267 82.2635C27.2051 82.3228 27.168 82.3752 27.1193 82.4153L27.0733 82.3846ZM27.3338 82.5378C27.3975 82.4796 27.4482 82.4085 27.4825 82.3293C27.5168 82.2501 27.534 82.1645 27.533 82.0782C27.533 81.9075 27.4652 81.7438 27.3445 81.6232C27.2238 81.5025 27.0602 81.4347 26.8895 81.4347C26.7529 81.432 26.6192 81.474 26.5086 81.5542C26.398 81.6343 26.3166 81.7484 26.2766 81.879C25.0815 81.1129 23.9324 80.2702 22.8292 79.3969L24.1316 78.0945C26.2016 79.7311 28.4291 81.1579 30.7812 82.354V83.5491L30.2143 84.116C29.2797 83.6563 28.3144 83.1354 27.3798 82.5685L27.3338 82.5378ZM32.3746 85.1119C31.7311 84.8361 31.1029 84.5603 30.4748 84.2539L31.0723 83.6563V82.4919L32.3746 83.1201V85.1119ZM32.3746 82.7983L31.0723 82.1701V80.1936L32.3746 80.8524V82.7983ZM32.3746 80.5C31.8997 80.2702 31.44 80.0404 30.9957 79.7953C29.1768 78.8092 27.4444 77.6713 25.817 76.3938L29.4176 72.7932C30.3622 73.5115 31.3497 74.1716 32.3746 74.7697V80.5ZM32.3746 74.3714C31.4614 73.8355 30.5767 73.2525 29.724 72.6247L31.2562 71.0925C31.6699 71.4143 32.0835 71.7054 32.5125 71.9812L32.3746 74.3714ZM32.3746 71.5828C31.9763 71.3224 31.5779 71.0466 31.1796 70.7401L30.3982 70.1426L29.724 69.5604L29.6014 69.4684L28.0693 71.2611C27.2571 70.559 26.4847 69.8122 25.7557 69.0241L31.2562 63.4317L31.057 63.2325L25.4033 68.8862C24.2801 67.667 23.2554 66.3605 22.3389 64.9792L24.3614 63.6768V63.5696C24.1316 63.2172 23.9171 62.8495 23.6873 62.4664L23.3195 61.8076C23.0591 61.3326 22.8139 60.8577 22.5994 60.3674H26.8129L30.0458 57.1345C31.4471 59.9299 33.4702 62.3671 35.9599 64.2591L32.4053 67.8137L32.3746 71.5828ZM32.6504 85.1732V80.8831C33.8862 81.4671 35.155 81.9787 36.4502 82.4153V85.9546L36.0212 86.3836C34.918 86.1231 33.7996 85.7094 32.6964 85.2651L32.6504 85.1732ZM40.7556 87.5633C39.2611 87.2872 37.7829 86.9292 36.3276 86.4908L36.726 86.0771V84.6982C38.0509 85.1003 39.3959 85.4327 40.7556 85.6941V87.5633ZM40.7556 85.403C39.3941 85.1437 38.0486 84.806 36.726 84.3918V82.5991C38.0485 83.0303 39.3938 83.3883 40.7556 83.6716V85.403ZM42.058 87.9464L41.0774 87.7778V83.7942L42.058 83.9781V87.9464ZM42.058 83.687L40.9701 83.3499C39.5499 83.0604 38.148 82.6869 36.772 82.2314V79.8872C38.4903 80.5115 40.2587 80.9882 42.058 81.3121V83.687ZM45.5666 88.2835C44.4788 88.2835 43.4063 88.0996 42.3491 87.9464V86.1078C43.4063 86.261 44.4941 86.3836 45.5666 86.4449V88.2835ZM46.7924 88.2835H45.8577V86.4142C46.1642 86.4142 46.4859 86.4142 46.7924 86.4142V88.2835ZM46.7924 86.1691C45.3051 86.1086 43.8219 85.9705 42.3491 85.7554V83.9474C43.8199 84.1821 45.3038 84.3254 46.7924 84.3764V86.1691ZM49.1366 88.2835H47.0835V84.3918H49.1366V88.2835ZM50.3623 88.2835H49.4124V86.4142H50.3623V88.2835ZM53.871 87.9464C52.8138 88.0996 51.7259 88.2069 50.6534 88.2835V86.4142C51.7259 86.4142 52.7984 86.2304 53.871 86.0771V87.9464ZM53.871 85.8167C52.3929 86.0318 50.9047 86.1699 49.4124 86.2304V84.3764C50.906 84.3261 52.3951 84.1828 53.871 83.9474V85.8167ZM53.871 83.7023C50.0548 84.3152 46.1652 84.3152 42.3491 83.7023V81.3581L43.3143 81.5113H43.4522L43.8506 78.7534C46.6769 79.1416 49.5431 79.1416 52.3694 78.7534L52.7065 81.5419H52.8444L53.8097 81.3887L53.871 83.7023ZM55.1274 87.7472L54.1468 87.9157V83.9015C54.4685 83.9015 54.8056 83.7942 55.1274 83.7176V87.7472ZM54.1468 83.6563V81.3581C55.9465 81.0364 57.7151 80.5597 59.4327 79.9331V82.3386C58.0613 82.7922 56.6647 83.1657 55.2499 83.4571L54.1468 83.6563ZM59.4327 82.6451V84.5297C58.1148 84.9421 56.7745 85.2797 55.4185 85.5409V83.6716C56.7757 83.3901 58.1159 83.032 59.4327 82.5991V82.6451ZM55.4185 87.7012V85.786C56.7727 85.5228 58.1125 85.1904 59.4327 84.7901V86.1691L59.8464 86.5828C58.3907 87.0194 56.9126 87.3774 55.4185 87.6553V87.7012ZM63.5083 85.3111C62.4205 85.7554 61.302 86.1691 60.1529 86.5215L59.7239 86.0925V82.5072C61.0131 82.068 62.2766 81.5565 63.5083 80.975V85.3111ZM63.5083 80.7145C62.2778 81.2986 61.0141 81.8102 59.7239 82.2467V79.7953C60.5206 79.5041 61.256 79.1671 62.0834 78.8147H62.2213L61.0568 76.2713C61.8953 75.8954 62.7135 75.476 63.5083 75.0149V80.7145ZM63.5083 74.6778C62.6761 75.1703 61.8167 75.6154 60.9343 76.0108L60.0763 74.1569C60.5512 73.9424 61.0109 73.7125 61.4399 73.4827C62.16 73.0997 62.8495 72.686 63.5083 72.2723V74.6778ZM63.5083 71.9199C62.8801 72.3336 62.206 72.732 61.5165 73.0997V69.1314L58.0232 65.6227C58.7068 65.2387 59.3668 64.814 59.9996 64.351L63.5083 67.8597V71.9199ZM63.7994 85.1885V83.1967L65.1018 82.5685V83.7329L65.684 84.3305C65.0711 84.5909 64.4429 84.882 63.7994 85.1425V85.1885ZM69.0854 82.4612C69.0358 82.4263 68.9949 82.3806 68.9657 82.3275C68.9365 82.2744 68.9198 82.2153 68.9169 82.1548C68.9169 82.0573 68.9556 81.9637 69.0246 81.8948C69.0935 81.8258 69.1871 81.7871 69.2846 81.7871C69.3744 81.7905 69.4598 81.8267 69.5247 81.8888C69.5896 81.9509 69.6296 82.0346 69.637 82.1241L69.0854 82.4612ZM69.8975 81.9556C69.8506 81.8092 69.7529 81.6844 69.622 81.6038C69.4911 81.5232 69.3356 81.4922 69.1838 81.5162C69.032 81.5403 68.8938 81.6179 68.7943 81.735C68.6947 81.8522 68.6404 82.0011 68.6411 82.1548C68.64 82.2411 68.6572 82.3267 68.6916 82.4059C68.7259 82.4851 68.7766 82.5562 68.8403 82.6144C67.9056 83.1813 66.9404 83.7023 65.9598 84.1466L65.3776 83.5797V82.3846C67.7337 81.1956 69.9619 79.7684 72.0272 78.1252L73.3295 79.4275C72.2302 80.315 71.0845 81.1435 69.8975 81.9096V81.9556ZM73.5593 79.2896L70.7708 76.4551L71.3224 76.0108L74.1569 78.7534L73.5593 79.2896ZM74.3254 78.6461L73.0231 77.3438C74.0667 76.4397 75.059 75.478 75.9955 74.4633L77.2978 75.7656C76.3601 76.7646 75.3678 77.7109 74.3254 78.6002V78.6461ZM77.497 75.5818L76.1947 74.2948C77.5247 72.857 78.7437 71.3204 79.8412 69.6983L81.1589 71.0159C80.0488 72.6137 78.825 74.1294 77.497 75.5511V75.5818ZM81.3274 70.8167L79.9944 69.4991L80.4847 68.7636L81.8024 70.0813L81.3274 70.8167ZM81.9709 69.8362L80.638 68.5185C80.8525 68.1814 81.0516 67.8443 81.2508 67.4919L82.5991 68.8402C82.3846 69.1467 82.1854 69.5604 81.9709 69.8055V69.8362ZM84.1313 66.0211C84.0837 66.0231 84.0363 66.0155 83.9917 65.9988C83.9472 65.982 83.9065 65.9564 83.8721 65.9234C83.8378 65.8905 83.8104 65.8509 83.7918 65.8071C83.7731 65.7634 83.7635 65.7163 83.7636 65.6687C83.7636 65.6204 83.7731 65.5726 83.7916 65.5279C83.81 65.4833 83.8371 65.4428 83.8713 65.4086C83.9054 65.3745 83.946 65.3474 83.9906 65.3289C84.0352 65.3105 84.083 65.3009 84.1313 65.3009C84.1886 65.3009 84.2451 65.3148 84.2958 65.3415C84.3466 65.3682 84.39 65.4069 84.4224 65.4542C84.3305 65.6227 84.2232 65.8066 84.1313 65.9904V66.0211ZM84.545 65.1784C84.4315 65.0589 84.2797 64.983 84.116 64.9639C83.9453 64.9476 83.7752 64.9998 83.643 65.109C83.5108 65.2182 83.4274 65.3754 83.4112 65.5461C83.3949 65.7168 83.4471 65.8869 83.5563 66.0191C83.6655 66.1512 83.8227 66.2346 83.9934 66.2509C83.6104 67.0323 83.1813 67.7831 82.737 68.5338L81.404 67.2008C82.261 65.723 83.0136 64.1871 83.6563 62.6043H85.6328C85.2957 63.4317 84.8821 64.3203 84.545 65.1477V65.1784ZM85.7401 62.3592H72.8699L73.0844 61.8995H85.878L85.7401 62.3592ZM85.9852 61.685H81.8177C82.0016 61.21 82.1701 60.7657 82.3233 60.3214H86.4142C86.307 60.7504 86.1538 61.21 85.9852 61.6544V61.685ZM86.5368 60.0456H84.6216C84.6982 59.7851 84.7901 59.5093 84.8667 59.2182H86.7819C86.7053 59.4634 86.6287 59.7392 86.5368 60.015V60.0456Z" fill="#F7C17A"/>
<path d="M68.3499 8.6261C70.2823 9.75082 72.1262 11.0211 73.8657 12.4259C75.8115 13.958 77.7267 15.4902 79.5653 17.2216C79.3508 16.9917 79.1363 16.7619 78.9371 16.5168C75.9494 13.1307 72.8391 9.80587 68.3499 8.6261Z" fill="#F7C17A"/>
</g>
<path d="M48.1101 0C38.5948 0 29.2932 2.82161 21.3816 8.10801C13.4699 13.3944 7.30352 20.9082 3.66218 29.6991C0.0208453 38.4901 -0.931895 48.1635 0.924443 57.4959C2.78078 66.8283 7.36282 75.4007 14.0911 82.129C20.8195 88.8574 29.3919 93.4394 38.7243 95.2957C48.0567 97.1521 57.7301 96.1993 66.521 92.558C75.312 88.9167 82.8258 82.7503 88.1122 74.8386C93.3986 66.9269 96.2202 57.6254 96.2202 48.1101C96.2202 35.3505 91.1515 23.1135 82.1291 14.0911C73.1067 5.06873 60.8697 0 48.1101 0ZM48.1101 88.3295C40.1555 88.3295 32.3794 85.9707 25.7654 81.5513C19.1513 77.1319 13.9963 70.8505 10.9522 63.5014C7.9081 56.1522 7.11162 48.0655 8.66349 40.2637C10.2154 32.4619 14.0459 25.2954 19.6707 19.6707C25.2955 14.0459 32.4619 10.2153 40.2637 8.66347C48.0655 7.1116 56.1523 7.90807 63.5014 10.9522C70.8505 13.9963 77.132 19.1513 81.5513 25.7654C85.9707 32.3794 88.3295 40.1554 88.3295 48.1101C88.3295 58.7769 84.0921 69.0069 76.5495 76.5495C69.0069 84.0921 58.777 88.3295 48.1101 88.3295Z" fill="#F7C17A"/>
<path d="M63.7996 32.099C62.2904 29.6769 59.998 27.8441 57.3032 26.9049C56.4029 26.6717 55.486 26.5077 54.5606 26.4146C51.4197 26.2767 45.3676 26.4146 45.3676 26.4146H44.2031C43.4865 26.4146 42.7991 26.6982 42.2909 27.2035C41.7828 27.7088 41.4953 28.3946 41.4912 29.1112V49.7649C41.4992 50.4802 41.788 51.1638 42.2953 51.6682C42.8026 52.1726 43.4878 52.4575 44.2031 52.4615H56.4605C58.3144 52.4615 61.2102 50.439 61.8844 49.8261C63.2949 48.6074 64.4342 47.1064 65.2286 45.42C66.023 43.7336 66.4548 41.8993 66.4962 40.0356C66.4852 37.167 65.5384 34.3805 63.7996 32.099ZM54.6066 47.1755C52.0598 47.4049 49.5006 47.4664 46.9457 47.3594V31.7312C48.4779 31.7312 53.0744 31.7312 54.6066 31.9304C56.4283 32.2622 58.0627 33.2567 59.1944 34.7223C60.3261 36.1879 60.875 38.0207 60.7352 39.8671C60.7614 41.6181 60.1565 43.3201 59.0312 44.662C57.906 46.0039 56.3354 46.8961 54.6066 47.1755Z" fill="#F7C17A"/>
<path d="M33.9221 15.383C34.4737 15.3064 50.6381 14.8774 56.1845 15.383C59.8157 15.7047 63.9526 16.7313 69.07 22.2165C72.4591 25.617 74.7626 29.9469 75.689 34.6577C75.934 35.9963 76.0214 37.359 75.9495 38.7179C75.6124 42.0734 73.2835 41.3379 73.2835 41.3379C72.4768 41.1958 71.7426 40.7829 71.2022 40.1673C70.6618 39.5516 70.3475 38.7702 70.3111 37.9518C70.2152 35.2833 69.5353 32.6683 68.3193 30.291C67.3753 28.5316 66.1007 26.9709 64.5655 25.6945C62.4793 23.9101 60.1272 22.4626 57.5941 21.4044C55.8015 20.7456 46.8689 21.0214 46.8689 21.0214L34.014 20.9294C33.3935 20.8139 32.827 20.5008 32.399 20.0369C31.9711 19.573 31.7045 18.9832 31.6392 18.3554C31.6371 17.6772 31.8601 17.0174 32.2732 16.4795C32.6864 15.9416 33.2663 15.5559 33.9221 15.383Z" fill="#F7C17A"/>
<path d="M33.9377 26.3686H22.8907C22.5185 26.3406 22.1445 26.3897 21.7921 26.5129C21.4397 26.6361 21.1165 26.8307 20.8428 27.0846C20.5691 27.3384 20.3508 27.646 20.2015 27.9882C20.0522 28.3303 19.9751 28.6996 19.9751 29.0729C19.9751 29.4462 20.0522 29.8155 20.2015 30.1576C20.3508 30.4998 20.5691 30.8074 20.8428 31.0612C21.1165 31.3151 21.4397 31.5097 21.7921 31.6329C22.1445 31.7561 22.5185 31.8052 22.8907 31.7772H31.2564V76.6391C31.2564 77.3583 31.5421 78.0481 32.0507 78.5567C32.5593 79.0653 33.2491 79.351 33.9683 79.351C34.6876 79.351 35.3774 79.0653 35.8859 78.5567C36.3945 78.0481 36.6802 77.3583 36.6802 76.6391V29.1418C36.6885 28.778 36.6234 28.4162 36.4889 28.078C36.3544 27.7398 36.1532 27.4322 35.8973 27.1734C35.6413 26.9147 35.336 26.71 34.9993 26.5718C34.6626 26.4335 34.3016 26.3644 33.9377 26.3686Z" fill="#F7C17A"/>
<path d="M72.9469 46.057C72.3759 45.6954 71.6872 45.5684 71.0248 45.7026C70.3624 45.8368 69.7775 46.2218 69.3922 46.7771L65.8529 50.8833C61.8846 55.4798 58.6977 56.4757 55.8019 56.7822C53.8714 56.9967 48.7692 56.8588 46.9 56.7822H44.234C43.5241 56.7862 42.8445 57.07 42.3425 57.5719C41.8405 58.0739 41.5568 58.7536 41.5527 59.4635V78.4164C41.6038 79.0905 41.9076 79.7205 42.4034 80.1801C42.8992 80.6397 43.5503 80.8951 44.2264 80.8951C44.9024 80.8951 45.5535 80.6397 46.0493 80.1801C46.5451 79.7205 46.8489 79.0905 46.9 78.4164V62.1447C49.0757 62.1447 55.7713 62.1447 57.0889 62.0069C58.2466 61.912 59.3858 61.6594 60.475 61.2561C62.9542 60.4528 65.2394 59.1432 67.1859 57.4103C69.5442 55.2034 71.6324 52.7243 73.4065 50.0253C73.6543 49.7421 73.84 49.4103 73.9519 49.051C74.0637 48.6917 74.0991 48.3131 74.0558 47.9393C74.0125 47.5656 73.8915 47.205 73.7005 46.8808C73.5095 46.5566 73.2528 46.276 72.9469 46.057Z" fill="#F7C17A"/>
<g filter="url(#filter0_d_341_243)">
<path d="M117.195 60.1861V32.1861H129.315C131.822 32.1861 133.982 32.5994 135.795 33.4261C137.609 34.2261 139.009 35.3861 139.995 36.9061C140.982 38.4261 141.475 40.2394 141.475 42.3461C141.475 44.4261 140.982 46.2261 139.995 47.7461C139.009 49.2661 137.609 50.4394 135.795 51.2661C133.982 52.0661 131.822 52.4661 129.315 52.4661H120.795L123.675 49.5461V60.1861H117.195ZM123.675 50.2661L120.795 47.1861H128.955C130.955 47.1861 132.449 46.7594 133.435 45.9061C134.422 45.0528 134.915 43.8661 134.915 42.3461C134.915 40.7994 134.422 39.5994 133.435 38.7461C132.449 37.8928 130.955 37.4661 128.955 37.4661H120.795L123.675 34.3861V50.2661ZM158.666 60.1861V55.9861L158.266 55.0661V47.5461C158.266 46.2128 157.853 45.1728 157.026 44.4261C156.226 43.6794 154.986 43.3061 153.306 43.3061C152.16 43.3061 151.026 43.4928 149.906 43.8661C148.813 44.2128 147.88 44.6928 147.106 45.3061L144.866 40.9461C146.04 40.1194 147.453 39.4794 149.106 39.0261C150.76 38.5728 152.44 38.3461 154.146 38.3461C157.426 38.3461 159.973 39.1194 161.786 40.6661C163.6 42.2128 164.506 44.6261 164.506 47.9061V60.1861H158.666ZM152.106 60.5061C150.426 60.5061 148.986 60.2261 147.786 59.6661C146.586 59.0794 145.666 58.2928 145.026 57.3061C144.386 56.3194 144.066 55.2128 144.066 53.9861C144.066 52.7061 144.373 51.5861 144.986 50.6261C145.626 49.6661 146.626 48.9194 147.986 48.3861C149.346 47.8261 151.12 47.5461 153.306 47.5461H159.026V51.1861H153.986C152.52 51.1861 151.506 51.4261 150.946 51.9061C150.413 52.3861 150.146 52.9861 150.146 53.7061C150.146 54.5061 150.453 55.1461 151.066 55.6261C151.706 56.0794 152.573 56.3061 153.666 56.3061C154.706 56.3061 155.64 56.0661 156.466 55.5861C157.293 55.0794 157.893 54.3461 158.266 53.3861L159.226 56.2661C158.773 57.6528 157.946 58.7061 156.746 59.4261C155.546 60.1461 154 60.5061 152.106 60.5061ZM170.154 60.1861V38.6661H176.114V44.7461L175.274 42.9861C175.914 41.4661 176.94 40.3194 178.354 39.5461C179.767 38.7461 181.487 38.3461 183.514 38.3461V44.1061C183.247 44.0794 183.007 44.0661 182.794 44.0661C182.58 44.0394 182.354 44.0261 182.114 44.0261C180.407 44.0261 179.02 44.5194 177.954 45.5061C176.914 46.4661 176.394 47.9728 176.394 50.0261V60.1861H170.154ZM192.423 55.7861L192.583 48.1861L202.623 38.6661H210.063L200.423 48.4661L197.183 51.1061L192.423 55.7861ZM187.263 60.1861V30.5061H193.503V60.1861H187.263ZM203.303 60.1861L196.023 51.1461L199.943 46.3061L210.863 60.1861H203.303ZM231.237 60.1861V37.4661H222.277V32.1861H246.677V37.4661H237.717V60.1861H231.237ZM257.776 60.5061C255.483 60.5061 253.443 60.0261 251.656 59.0661C249.896 58.1061 248.496 56.7994 247.456 55.1461C246.443 53.4661 245.936 51.5594 245.936 49.4261C245.936 47.2661 246.443 45.3594 247.456 43.7061C248.496 42.0261 249.896 40.7194 251.656 39.7861C253.443 38.8261 255.483 38.3461 257.776 38.3461C260.043 38.3461 262.07 38.8261 263.856 39.7861C265.643 40.7194 267.043 42.0128 268.056 43.6661C269.07 45.3194 269.576 47.2394 269.576 49.4261C269.576 51.5594 269.07 53.4661 268.056 55.1461C267.043 56.7994 265.643 58.1061 263.856 59.0661C262.07 60.0261 260.043 60.5061 257.776 60.5061ZM257.776 55.3861C258.816 55.3861 259.75 55.1461 260.576 54.6661C261.403 54.1861 262.056 53.5061 262.536 52.6261C263.016 51.7194 263.256 50.6528 263.256 49.4261C263.256 48.1728 263.016 47.1061 262.536 46.2261C262.056 45.3461 261.403 44.6661 260.576 44.1861C259.75 43.7061 258.816 43.4661 257.776 43.4661C256.736 43.4661 255.803 43.7061 254.976 44.1861C254.15 44.6661 253.483 45.3461 252.976 46.2261C252.496 47.1061 252.256 48.1728 252.256 49.4261C252.256 50.6528 252.496 51.7194 252.976 52.6261C253.483 53.5061 254.15 54.1861 254.976 54.6661C255.803 55.1461 256.736 55.3861 257.776 55.3861ZM278.907 55.7861L279.067 48.1861L289.107 38.6661H296.547L286.907 48.4661L283.667 51.1061L278.907 55.7861ZM273.747 60.1861V30.5061H279.987V60.1861H273.747ZM289.787 60.1861L282.507 51.1461L286.427 46.3061L297.347 60.1861H289.787ZM309.935 60.5061C307.482 60.5061 305.322 60.0261 303.455 59.0661C301.615 58.1061 300.189 56.7994 299.175 55.1461C298.162 53.4661 297.655 51.5594 297.655 49.4261C297.655 47.2661 298.149 45.3594 299.135 43.7061C300.149 42.0261 301.522 40.7194 303.255 39.7861C304.989 38.8261 306.949 38.3461 309.135 38.3461C311.242 38.3461 313.135 38.7994 314.815 39.7061C316.522 40.5861 317.869 41.8661 318.855 43.5461C319.842 45.1994 320.335 47.1861 320.335 49.5061C320.335 49.7461 320.322 50.0261 320.295 50.3461C320.269 50.6394 320.242 50.9194 320.215 51.1861H302.735V47.5461H316.935L314.535 48.6261C314.535 47.5061 314.309 46.5328 313.855 45.7061C313.402 44.8794 312.775 44.2394 311.975 43.7861C311.175 43.3061 310.242 43.0661 309.175 43.0661C308.109 43.0661 307.162 43.3061 306.335 43.7861C305.535 44.2394 304.909 44.8928 304.455 45.7461C304.002 46.5728 303.775 47.5594 303.775 48.7061V49.6661C303.775 50.8394 304.029 51.8794 304.535 52.7861C305.069 53.6661 305.802 54.3461 306.735 54.8261C307.695 55.2794 308.815 55.5061 310.095 55.5061C311.242 55.5061 312.242 55.3328 313.095 54.9861C313.975 54.6394 314.775 54.1194 315.495 53.4261L318.815 57.0261C317.829 58.1461 316.589 59.0128 315.095 59.6261C313.602 60.2128 311.882 60.5061 309.935 60.5061ZM337.57 38.3461C339.276 38.3461 340.796 38.6928 342.13 39.3861C343.49 40.0528 344.556 41.0928 345.33 42.5061C346.103 43.8928 346.49 45.6794 346.49 47.8661V60.1861H340.25V48.8261C340.25 47.0928 339.863 45.8128 339.09 44.9861C338.343 44.1594 337.276 43.7461 335.89 43.7461C334.903 43.7461 334.01 43.9594 333.21 44.3861C332.436 44.7861 331.823 45.4128 331.37 46.2661C330.943 47.1194 330.73 48.2128 330.73 49.5461V60.1861H324.49V38.6661H330.45V44.6261L329.33 42.8261C330.103 41.3861 331.21 40.2794 332.65 39.5061C334.09 38.7328 335.73 38.3461 337.57 38.3461Z" fill="white"/>
</g>
<defs>
<filter id="filter0_d_341_243" x="113.195" y="30.5061" width="237.294" height="38" filterUnits="userSpaceOnUse" color-interpolation-filters="sRGB">
<feFlood flood-opacity="0" result="BackgroundImageFix"/>
<feColorMatrix in="SourceAlpha" type="matrix" values="0 0 0 0 0 0 0 0 0 0 0 0 0 0 0 0 0 0 127 0" result="hardAlpha"/>
<feOffset dy="4"/>
<feGaussianBlur stdDeviation="2"/>
<feComposite in2="hardAlpha" operator="out"/>
<feColorMatrix type="matrix" values="0 0 0 0 0 0 0 0 0 0 0 0 0 0 0 0 0 0 0.25 0"/>
<feBlend mode="normal" in2="BackgroundImageFix" result="effect1_dropShadow_341_243"/>
<feBlend mode="normal" in="SourceGraphic" in2="effect1_dropShadow_341_243" result="shape"/>
</filter>
</defs>
</svg>
